<?xml version="1.0" encoding="UTF-8"?>
<svg width="92px" height="92px" viewBox="0 0 92 92" version="1.1" xmlns="http://www.w3.org/2000/svg" xmlns:xlink="http://www.w3.org/1999/xlink" style="background: #FFFFFF;">
    <!-- Generator: Sketch 48.1 (47250) - http://www.bohemiancoding.com/sketch -->
    <title>Artboard</title>
    <desc>Created with Sketch.</desc>
    <defs></defs>
    <g id="New-Editor" stroke="none" stroke-width="1" fill="none" fill-rule="evenodd">
        <g id="Artboard">
            <g id="Animation05">
                <rect id="Rectangle-25-Copy-9" fill="#FFFFFF" x="3.18323146e-12" y="0" width="92" height="92"></rect>
                <rect id="Rectangle-28-Copy-5" fill="#FFDA3B" x="10" y="29" width="3" height="35"></rect>
                <path d="M22.445,43.143 C21.4916619,43.143 20.7788357,42.874336 20.3065,42.337 C19.8341643,41.799664 19.5763336,40.9980053 19.533,39.932 L21.184,39.607 C21.2100001,40.2743367 21.3161657,40.7834982 21.5025,41.1345 C21.6888343,41.4855018 21.9813313,41.661 22.38,41.661 C22.6746681,41.661 22.8934993,41.5721676 23.0365,41.3945 C23.1795007,41.2168324 23.251,40.9763349 23.251,40.673 C23.251,40.2569979 23.1578343,39.9060014 22.9715,39.62 C22.7851657,39.3339986 22.4926687,39.0133351 22.094,38.658 L20.768,37.501 C20.3606646,37.1369982 20.0551677,36.7621686 19.8515,36.3765 C19.6478323,35.9908314 19.546,35.5163362 19.546,34.953 C19.546,34.1209958 19.7886642,33.4796689 20.274,33.029 C20.7593358,32.5783311 21.4309957,32.353 22.289,32.353 C23.1903378,32.353 23.8359981,32.6108308 24.226,33.1265 C24.616002,33.6421692 24.841333,34.3376623 24.902,35.213 L23.251,35.499 C23.2249999,34.9356638 23.1491673,34.5066681 23.0235,34.212 C22.8978327,33.9173319 22.6530018,33.77 22.289,33.77 C21.9943319,33.77 21.7625008,33.8609991 21.5935,34.043 C21.4244992,34.2250009 21.34,34.4633319 21.34,34.758 C21.34,35.0960017 21.4093326,35.3776655 21.548,35.603 C21.6866674,35.8283345 21.9033319,36.075332 22.198,36.344 L23.511,37.501 C24.0050025,37.9430022 24.3906653,38.4023309 24.668,38.879 C24.9453347,39.3556691 25.084,39.9146635 25.084,40.556 C25.084,41.0586692 24.9735011,41.504998 24.7525,41.895 C24.5314989,42.285002 24.2216687,42.5904989 23.823,42.8115 C23.4243313,43.0325011 22.9650026,43.143 22.445,43.143 Z M26.8118779,32.47 L28.7228779,32.47 L28.7228779,41.687 L31.2838779,41.687 L31.2838779,43 L26.8118779,43 L26.8118779,32.47 Z M32.9337557,32.47 L34.8317557,32.47 L34.8317557,43 L32.9337557,43 L32.9337557,32.47 Z M37.0536336,32.47 L40.1476336,32.47 C41.9416426,32.47 42.8386336,33.4666567 42.8386336,35.46 C42.8386336,37.3666762 41.8983097,38.32 40.0176336,38.32 L38.9646336,38.32 L38.9646336,43 L37.0536336,43 L37.0536336,32.47 Z M39.7056336,36.968 C40.2256362,36.968 40.5766327,36.8575011 40.7586336,36.6365 C40.9406345,36.4154989 41.0316336,36.0190029 41.0316336,35.447 C41.0316336,35.0309979 41.0013006,34.7125011 40.9406336,34.4915 C40.8799666,34.2704989 40.7564679,34.1036672 40.5701336,33.991 C40.3837994,33.8783328 40.0956356,33.822 39.7056336,33.822 L38.9646336,33.822 L38.9646336,36.968 L39.7056336,36.968 Z M48.3093894,35.447 C48.5953908,35.4383333 48.7903888,35.330001 48.8943894,35.122 C48.9983899,34.913999 49.0503894,34.5890022 49.0503894,34.147 L48.2573894,34.147 L48.2573894,32.47 L49.9473894,32.47 L49.9473894,33.822 C49.9300559,34.5760038 49.8152238,35.1328315 49.6028894,35.4925 C49.390555,35.8521685 49.024392,36.0363333 48.5043894,36.045 L48.3093894,35.447 Z M51.6882672,32.47 L53.0272672,32.47 L55.5882672,38.476 L55.5882672,32.47 L57.1742672,32.47 L57.1742672,43 L55.9002672,43 L53.3262672,36.708 L53.3262672,43 L51.6882672,43 L51.6882672,32.47 Z" id="SLIP-’N" fill="#252E3B"></path>
                <path d="M22.445,61.143 C21.4916619,61.143 20.7788357,60.874336 20.3065,60.337 C19.8341643,59.799664 19.5763336,58.9980053 19.533,57.932 L21.184,57.607 C21.2100001,58.2743367 21.3161657,58.7834982 21.5025,59.1345 C21.6888343,59.4855018 21.9813313,59.661 22.38,59.661 C22.6746681,59.661 22.8934993,59.5721676 23.0365,59.3945 C23.1795007,59.2168324 23.251,58.9763349 23.251,58.673 C23.251,58.2569979 23.1578343,57.9060014 22.9715,57.62 C22.7851657,57.3339986 22.4926687,57.0133351 22.094,56.658 L20.768,55.501 C20.3606646,55.1369982 20.0551677,54.7621686 19.8515,54.3765 C19.6478323,53.9908314 19.546,53.5163362 19.546,52.953 C19.546,52.1209958 19.7886642,51.4796689 20.274,51.029 C20.7593358,50.5783311 21.4309957,50.353 22.289,50.353 C23.1903378,50.353 23.8359981,50.6108308 24.226,51.1265 C24.616002,51.6421692 24.841333,52.3376623 24.902,53.213 L23.251,53.499 C23.2249999,52.9356638 23.1491673,52.5066681 23.0235,52.212 C22.8978327,51.9173319 22.6530018,51.77 22.289,51.77 C21.9943319,51.77 21.7625008,51.8609991 21.5935,52.043 C21.4244992,52.2250009 21.34,52.4633319 21.34,52.758 C21.34,53.0960017 21.4093326,53.3776655 21.548,53.603 C21.6866674,53.8283345 21.9033319,54.075332 22.198,54.344 L23.511,55.501 C24.0050025,55.9430022 24.3906653,56.4023309 24.668,56.879 C24.9453347,57.3556691 25.084,57.9146635 25.084,58.556 C25.084,59.0586692 24.9735011,59.504998 24.7525,59.895 C24.5314989,60.285002 24.2216687,60.5904989 23.823,60.8115 C23.4243313,61.0325011 22.9650026,61.143 22.445,61.143 Z M26.8118779,50.47 L28.7228779,50.47 L28.7228779,59.687 L31.2838779,59.687 L31.2838779,61 L26.8118779,61 L26.8118779,50.47 Z M32.9337557,50.47 L34.8317557,50.47 L34.8317557,61 L32.9337557,61 L32.9337557,50.47 Z M37.0536336,50.47 L39.5366336,50.47 C40.3859712,50.47 41.0532979,50.5848322 41.5386336,50.8145 C42.0239694,51.0441678 42.3684659,51.3951643 42.5721336,51.8675 C42.7758013,52.3398357 42.8776336,52.9659961 42.8776336,53.746 L42.8776336,57.581 C42.8776336,58.3783373 42.7758013,59.0239975 42.5721336,59.518 C42.3684659,60.0120025 42.0283027,60.3824988 41.5516336,60.6295 C41.0749646,60.8765012 40.4293044,61 39.6146336,61 L37.0536336,61 L37.0536336,50.47 Z M39.5626336,59.661 C39.9873024,59.661 40.294966,59.5873341 40.4856336,59.44 C40.6763012,59.2926659 40.7976334,59.0868347 40.8496336,58.8225 C40.9016339,58.5581653 40.9276336,58.1660026 40.9276336,57.646 L40.9276336,53.616 C40.9276336,53.1479977 40.8973006,52.7926679 40.8366336,52.55 C40.7759666,52.3073321 40.6481346,52.1275006 40.4531336,52.0105 C40.2581326,51.8934994 39.9526357,51.835 39.5366336,51.835 L38.9646336,51.835 L38.9646336,59.661 L39.5626336,59.661 Z M44.8915115,50.47 L49.3115115,50.47 L49.3115115,51.822 L46.8025115,51.822 L46.8025115,54.851 L48.7785115,54.851 L48.7785115,56.19 L46.8025115,56.19 L46.8025115,59.687 L49.3375115,59.687 L49.3375115,61 L44.8915115,61 L44.8915115,50.47 Z" id="SLIDE" fill="#252E3B"></path>
            </g>
        </g>
    </g>
</svg>