<?xml version="1.0" encoding="UTF-8"?>
<svg width="92px" height="92px" viewBox="0 0 92 92" version="1.1" xmlns="http://www.w3.org/2000/svg" xmlns:xlink="http://www.w3.org/1999/xlink" style="background: #FFFFFF;">
    <!-- Generator: Sketch 48.1 (47250) - http://www.bohemiancoding.com/sketch -->
    <title>Artboard</title>
    <desc>Created with Sketch.</desc>
    <defs></defs>
    <g id="New-Editor" stroke="none" stroke-width="1" fill="none" fill-rule="evenodd">
        <g id="Artboard">
            <g id="Animation10">
                <rect id="Rectangle-25-Copy-12" fill="#FFFFFF" x="0" y="0" width="92" height="92"></rect>
                <g id="Group-17" transform="translate(13.000000, 27.000000)" fill="#FFDA3B">
                    <g id="Group-7">
                        <rect id="Rectangle-28-Copy-2" transform="translate(33.000000, 9.000000) rotate(90.000000) translate(-33.000000, -9.000000) " x="24" y="-24" width="18" height="66"></rect>
                    </g>
                </g>
                <g id="Group-17-Copy" transform="translate(13.000000, 48.000000)" fill="#FFDA3B">
                    <g id="Group-7">
                        <rect id="Rectangle-28-Copy-2" transform="translate(33.000000, 9.000000) rotate(90.000000) translate(-33.000000, -9.000000) " x="24" y="-24" width="18" height="66"></rect>
                    </g>
                </g>
                <path d="M31.971,32.3 L33.709,32.3 L33.709,35.512 L37.196,35.512 L37.196,32.3 L38.934,32.3 L38.934,40 L37.196,40 L37.196,36.964 L33.709,36.964 L33.709,40 L31.971,40 L31.971,32.3 Z M40.828,32.3 L42.566,32.3 L42.566,40 L40.828,40 L40.828,32.3 Z M49.641,38.141 L49.641,36.117 L51.148,36.117 L51.148,39.076 C50.334,39.67 49.091,40.077 48.024,40.077 C45.692,40.077 43.921,38.383 43.921,36.15 C43.921,33.928 45.725,32.245 48.123,32.245 C49.267,32.245 50.433,32.685 51.214,33.367 L50.235,34.61 C49.663,34.082 48.871,33.752 48.123,33.752 C46.759,33.752 45.703,34.797 45.703,36.15 C45.703,37.514 46.77,38.559 48.134,38.559 C48.596,38.559 49.146,38.394 49.641,38.141 Z M52.866,32.3 L54.604,32.3 L54.604,35.512 L58.091,35.512 L58.091,32.3 L59.829,32.3 L59.829,40 L58.091,40 L58.091,36.964 L54.604,36.964 L54.604,40 L52.866,40 L52.866,32.3 Z" id="HIGH" fill="#252E3B"></path>
                <path d="M29.858,53.3 L31.596,53.3 L31.596,59.482 L34.896,59.482 L34.896,61 L29.858,61 L29.858,53.3 Z M36.13,53.3 L37.868,53.3 L37.868,61 L36.13,61 L36.13,53.3 Z M44.943,59.141 L44.943,57.117 L46.45,57.117 L46.45,60.076 C45.636,60.67 44.393,61.077 43.326,61.077 C40.994,61.077 39.223,59.383 39.223,57.15 C39.223,54.928 41.027,53.245 43.425,53.245 C44.569,53.245 45.735,53.685 46.516,54.367 L45.537,55.61 C44.965,55.082 44.173,54.752 43.425,54.752 C42.061,54.752 41.005,55.797 41.005,57.15 C41.005,58.514 42.072,59.559 43.436,59.559 C43.898,59.559 44.448,59.394 44.943,59.141 Z M48.168,53.3 L49.906,53.3 L49.906,56.512 L53.393,56.512 L53.393,53.3 L55.131,53.3 L55.131,61 L53.393,61 L53.393,57.964 L49.906,57.964 L49.906,61 L48.168,61 L48.168,53.3 Z M56.266,53.3 L62.701,53.3 L62.701,54.774 L60.347,54.774 L60.347,61 L58.609,61 L58.609,54.774 L56.266,54.774 L56.266,53.3 Z" id="LIGHT" fill="#252E3B"></path>
            </g>
        </g>
    </g>
</svg>