<?xml version="1.0" encoding="UTF-8"?>
<svg width="92px" height="92px" viewBox="0 0 92 92" version="1.1" xmlns="http://www.w3.org/2000/svg" xmlns:xlink="http://www.w3.org/1999/xlink" style="background: #FFFFFF;">
    <!-- Generator: Sketch 48.1 (47250) - http://www.bohemiancoding.com/sketch -->
    <title>Artboard</title>
    <desc>Created with Sketch.</desc>
    <defs>
        <linearGradient x1="0%" y1="50%" x2="100%" y2="50%" id="linearGradient-1">
            <stop stop-color="#FFEF6D" offset="0%"></stop>
            <stop stop-color="#FFDA3B" stop-opacity="0" offset="100%"></stop>
        </linearGradient>
    </defs>
    <g id="New-Editor" stroke="none" stroke-width="1" fill="none" fill-rule="evenodd">
        <g id="Artboard">
            <g id="Animation04">
                <rect id="Rectangle-25-Copy-8" fill="#FFFFFF" x="0" y="0" width="92" height="92"></rect>
                <rect id="Rectangle-28-Copy-4" fill="url(#linearGradient-1)" x="12" y="30" width="28" height="32"></rect>
                <path d="M22.0092393,58 L22.0092393,46.1932826 L23.82034,46.1932826 C25.4240627,46.1932826 27.4978421,46.393748 27.4978421,48.868458 L27.4978421,49.4422037 C27.4978421,50.7002965 26.7167185,51.5712839 25.9217698,51.7648366 L25.9217698,51.8201374 C27.0899988,52.0344279 27.6913949,52.9745413 27.6913949,54.3777986 L27.6913949,54.9791947 C27.6913949,57.5506811 25.901032,58 23.889466,58 L22.0092393,58 Z M23.7650392,51.2463918 L24.1106691,51.2463918 C25.0715202,51.2463918 25.7143918,50.8108981 25.7143918,49.7048824 L25.7143918,49.2210005 C25.7143918,48.1218975 25.2927234,47.4997636 24.1106691,47.4997636 L23.7650392,47.4997636 L23.7650392,51.2463918 Z M23.7650392,56.7557324 L24.2765715,56.7557324 C25.23051,56.7557324 25.8733816,56.2580253 25.8733816,55.1520096 L25.8733816,54.2326341 C25.8733816,53.1266184 25.4517131,52.5113972 24.2765715,52.5113972 L23.7650392,52.5113972 L23.7650392,56.7557324 Z M30.0467294,58 L30.0467294,46.1932826 L31.9891695,46.1932826 C33.3233009,46.1932826 35.5698952,46.359185 35.5698952,49.5666304 L35.5698952,49.8638722 C35.5698952,51.654235 35.0376252,52.7809885 34.0422111,53.2786956 L35.9362629,58 L34.0422111,58 L32.4730513,53.5828499 L31.8025293,53.5828499 L31.8025293,58 L30.0467294,58 Z M31.8025293,52.290194 L32.0721206,52.290194 C33.3302135,52.290194 33.7726198,51.7786618 33.7726198,50.1887643 L33.7726198,49.2555635 C33.7726198,48.0389463 33.3786017,47.4997636 32.0721206,47.4997636 L31.8025293,47.4997636 L31.8025293,52.290194 Z M38.0911321,58 L38.0911321,46.1932826 L42.4668067,46.1932826 L42.4668067,47.6034526 L39.881495,47.6034526 L39.881495,51.1357902 L41.8792359,51.1357902 L41.8792359,52.5459602 L39.881495,52.5459602 L39.881495,56.58983 L42.5359327,56.58983 L42.5359327,58 L38.0911321,58 Z M44.6285885,58 L44.6285885,46.1932826 L49.004263,46.1932826 L49.004263,47.6034526 L46.4189514,47.6034526 L46.4189514,51.1357902 L48.4166922,51.1357902 L48.4166922,52.5459602 L46.4189514,52.5459602 L46.4189514,56.58983 L49.073389,56.58983 L49.073389,58 L44.6285885,58 Z M50.4263969,58 L50.4263969,57.0529741 L53.9241715,47.6034526 L50.9517543,47.6034526 L50.9517543,46.1932826 L55.9357375,46.1932826 L55.9357375,47.1403085 L52.4310503,56.58983 L55.7283595,56.58983 L55.7283595,58 L50.4263969,58 Z M57.9454421,58 L57.9454421,46.1932826 L62.3211167,46.1932826 L62.3211167,47.6034526 L59.735805,47.6034526 L59.735805,51.1357902 L61.7335458,51.1357902 L61.7335458,52.5459602 L59.735805,52.5459602 L59.735805,56.58983 L62.3902427,56.58983 L62.3902427,58 L57.9454421,58 Z" id="BREEZE" fill="#252E3B"></path>
                <path d="M27.7234379,37.4707029 C27.7234379,38.1613314 27.6117202,38.7613906 27.3882816,39.2708983 C27.164843,39.7804061 26.8550804,40.1891911 26.4589847,40.4972656 L27.687891,41.4621094 L26.7179691,42.3203126 L25.1437502,41.0558594 C24.9643222,41.0863283 24.7781262,41.1015625 24.5851564,41.1015625 C23.9723929,41.1015625 23.4256536,40.9542983 22.944922,40.6597656 C22.4641904,40.3652329 22.0917983,39.944599 21.8277344,39.3978515 C21.5636706,38.8511039 21.429948,38.222269 21.4265625,37.5113279 L21.4265625,37.1457029 C21.4265625,36.4178347 21.5577461,35.7771509 21.8201172,35.2236325 C22.0824884,34.6701141 22.4531878,34.2452485 22.9322267,33.949023 C23.4112655,33.6527976 23.9588512,33.5046871 24.5750002,33.5046871 C25.1911491,33.5046871 25.7387348,33.6527976 26.2177737,33.949023 C26.6968126,34.2452485 27.067512,34.6701141 27.3298832,35.2236325 C27.5922543,35.7771509 27.7234379,36.416142 27.7234379,37.1406248 L27.7234379,37.4707029 Z M26.1796878,37.1355467 C26.1796878,36.3602823 26.0408871,35.7712257 25.7632815,35.3683591 C25.4856759,34.9654924 25.0895861,34.7640622 24.5750002,34.7640622 C24.0637997,34.7640622 23.6694026,34.9629534 23.391797,35.3607419 C23.1141914,35.7585303 22.973698,36.3416626 22.9703126,37.110156 L22.9703126,37.4707029 C22.9703126,38.2256547 23.1091133,38.8113259 23.3867189,39.2277343 C23.6643245,39.6441426 24.0637996,39.8523437 24.5851564,39.8523437 C25.0963569,39.8523437 25.4890614,39.6517597 25.7632815,39.2505858 C26.0375016,38.8494119 26.1763024,38.264587 26.1796878,37.4960936 L26.1796878,37.1355467 Z M34.9367195,33.6062496 L34.9367195,38.4761717 C34.9367195,39.2852904 34.6836621,39.9251278 34.1775398,40.3957031 C33.6714174,40.8662784 32.9799529,41.1015625 32.1031256,41.1015625 C31.23984,41.1015625 30.5542999,40.8730492 30.0464848,40.4160156 C29.5386698,39.958982 29.279688,39.3309935 29.2695317,38.5320311 L29.2695317,33.6062496 L30.7929693,33.6062496 L30.7929693,38.486328 C30.7929693,38.970445 30.9089186,39.3233712 31.1408208,39.5451171 C31.3727231,39.766863 31.6934881,39.8777343 32.1031256,39.8777343 C32.9596403,39.8777343 33.394662,39.4274784 33.4082038,38.526953 L33.4082038,33.6062496 L34.9367195,33.6062496 Z M38.3058603,41 L36.7824227,41 L36.7824227,33.6062496 L38.3058603,33.6062496 L38.3058603,41 Z M46.0218763,38.5371092 C45.9643239,39.3326862 45.6706419,39.958982 45.1408216,40.4160156 C44.6110012,40.8730492 43.9127659,41.1015625 43.0460949,41.1015625 C42.0981734,41.1015625 41.3525428,40.7824902 40.8091807,40.1443359 C40.2658186,39.5061816 39.9941416,38.6302138 39.9941416,37.5164061 L39.9941416,37.0644529 C39.9941416,36.3535118 40.1194008,35.727216 40.3699229,35.1855466 C40.620445,34.6438772 40.9784492,34.2283214 41.4439464,33.9388668 C41.9094435,33.6494122 42.4502584,33.5046871 43.0664074,33.5046871 C43.9195367,33.5046871 44.6067694,33.7332004 45.1281262,34.190234 C45.649483,34.6472676 45.9507821,35.2887976 46.0320325,36.1148435 L44.508595,36.1148435 C44.4713552,35.6374973 44.3384789,35.2913419 44.1099621,35.0763669 C43.8814453,34.8613918 43.5335972,34.7539059 43.0664074,34.7539059 C42.5585923,34.7539059 42.1785831,34.9358702 41.9263683,35.2998044 C41.6741534,35.6637385 41.5446625,36.2282511 41.5378917,36.9933592 L41.5378917,37.5519529 C41.5378917,38.3509153 41.6589191,38.9348939 41.9009776,39.3039062 C42.1430361,39.6729184 42.5247381,39.8574218 43.0460949,39.8574218 C43.5166702,39.8574218 43.8679037,39.7499359 44.0998059,39.5349609 C44.3317081,39.3199858 44.4645844,38.9873719 44.4984387,38.5371092 L46.0218763,38.5371092 Z M49.8378921,38.0343748 L49.0457046,38.8874999 L49.0457046,41 L47.522267,41 L47.522267,33.6062496 L49.0457046,33.6062496 L49.0457046,36.9578123 L49.7160171,36.0386716 L51.6000016,33.6062496 L53.4738298,33.6062496 L50.848439,36.8917966 L53.5500017,41 L51.737111,41 L49.8378921,38.0343748 Z" id="QUICK" fill="#252E3B"></path>
            </g>
        </g>
    </g>
</svg>