<?xml version="1.0" encoding="UTF-8"?>
<svg width="92px" height="92px" viewBox="0 0 92 92" version="1.1" xmlns="http://www.w3.org/2000/svg" xmlns:xlink="http://www.w3.org/1999/xlink">
    <!-- Generator: Sketch 50.2 (55047) - http://www.bohemiancoding.com/sketch -->
    <title>2</title>
    <desc>Created with Sketch.</desc>
    <defs></defs>
    <g id="2" stroke="none" stroke-width="1" fill="none" fill-rule="evenodd">
        <g id="Rectangle-25-Copy-10">
            <rect x="3.18323146e-12" y="0" width="92" height="92"></rect>
        </g>
        <g id="Group" transform="translate(19.000000, 24.000000)">
            <g id="Group-2">
                <rect id="Rectangle-2" fill="#252E3B" x="0" y="5.19512195" width="48.76" height="38.804878"></rect>
                <rect id="Rectangle-2" fill="#FFDA3B" x="5.24" y="0" width="48.76" height="38.804878"></rect>
                <path d="M20.3808108,10.6366183 C21.0612196,10.6366183 21.6520921,10.7482273 22.1534459,10.9714486 C22.6547998,11.1946699 23.0415527,11.5135526 23.3137162,11.9281065 C23.5858797,12.3426603 23.7219595,12.8298423 23.7219595,13.3896671 C23.7219595,13.9494919 23.5858797,14.4349024 23.3137162,14.845913 C23.0415527,15.2569236 22.6547998,15.5740348 22.1534459,15.7972561 C21.6520921,16.0204774 21.0612196,16.1320864 20.3808108,16.1320864 L19.0701351,16.1320864 L19.0701351,18.0772907 L16.942973,18.0772907 L16.942973,10.6366183 L20.3808108,10.6366183 Z M20.2518919,14.4738794 C20.688786,14.4738794 21.0182421,14.3799861 21.2402703,14.1921968 C21.4622984,14.0044074 21.5733108,13.7369002 21.5733108,13.3896671 C21.5733108,13.042434 21.4622984,12.7731552 21.2402703,12.5818227 C21.0182421,12.3904901 20.688786,12.2948253 20.2518919,12.2948253 L19.0701351,12.2948253 L19.0701351,14.4738794 L20.2518919,14.4738794 Z M29.4588514,18.2261042 C28.6638474,18.2261042 27.9494288,18.0595765 27.3155743,17.7265162 C26.6817198,17.3934558 26.1839545,16.9328474 25.8222635,16.344677 C25.4605725,15.7565066 25.2797297,15.0939391 25.2797297,14.3569545 C25.2797297,13.6199699 25.4605725,12.9574024 25.8222635,12.369232 C26.1839545,11.7810617 26.6817198,11.3204532 27.3155743,10.9873929 C27.9494288,10.6543325 28.6638474,10.4878049 29.4588514,10.4878049 C30.2538553,10.4878049 30.9682739,10.6543325 31.6021284,10.9873929 C32.2359829,11.3204532 32.7337482,11.7810617 33.0954392,12.369232 C33.4571302,12.9574024 33.637973,13.6199699 33.637973,14.3569545 C33.637973,15.0939391 33.4571302,15.7565066 33.0954392,16.344677 C32.7337482,16.9328474 32.2359829,17.3934558 31.6021284,17.7265162 C30.9682739,18.0595765 30.2538553,18.2261042 29.4588514,18.2261042 Z M29.4588514,16.4828609 C29.8384478,16.4828609 30.1822282,16.3942824 30.4902027,16.2171226 C30.7981772,16.0399629 31.0416883,15.7901714 31.2207432,15.4677406 C31.3997982,15.1453099 31.4893243,14.7750515 31.4893243,14.3569545 C31.4893243,13.9388575 31.3997982,13.5685992 31.2207432,13.2461684 C31.0416883,12.9237377 30.7981772,12.6739462 30.4902027,12.4967864 C30.1822282,12.3196267 29.8384478,12.2310481 29.4588514,12.2310481 C29.0792549,12.2310481 28.7354745,12.3196267 28.4275,12.4967864 C28.1195255,12.6739462 27.8760144,12.9237377 27.6969595,13.2461684 C27.5179045,13.5685992 27.4283784,13.9388575 27.4283784,14.3569545 C27.4283784,14.7750515 27.5179045,15.1453099 27.6969595,15.4677406 C27.8760144,15.7901714 28.1195255,16.0399629 28.4275,16.2171226 C28.7354745,16.3942824 29.0792549,16.4828609 29.4588514,16.4828609 Z M38.9988514,10.6366183 C39.6792602,10.6366183 40.2701326,10.7482273 40.7714865,10.9714486 C41.2728403,11.1946699 41.6595932,11.5135526 41.9317568,11.9281065 C42.2039203,12.3426603 42.34,12.8298423 42.34,13.3896671 C42.34,13.9494919 42.2039203,14.4349024 41.9317568,14.845913 C41.6595932,15.2569236 41.2728403,15.5740348 40.7714865,15.7972561 C40.2701326,16.0204774 39.6792602,16.1320864 38.9988514,16.1320864 L37.6881757,16.1320864 L37.6881757,18.0772907 L35.5610135,18.0772907 L35.5610135,10.6366183 L38.9988514,10.6366183 Z M38.8699324,14.4738794 C39.3068265,14.4738794 39.6362827,14.3799861 39.8583108,14.1921968 C40.0803389,14.0044074 40.1913514,13.7369002 40.1913514,13.3896671 C40.1913514,13.042434 40.0803389,12.7731552 39.8583108,12.5818227 C39.6362827,12.3904901 39.3068265,12.2948253 38.8699324,12.2948253 L37.6881757,12.2948253 L37.6881757,14.4738794 L38.8699324,14.4738794 Z M21.0791216,28.8556361 C20.2841176,28.8556361 19.5696991,28.6891085 18.9358446,28.3560481 C18.3019901,28.0229878 17.8042248,27.5623793 17.4425338,26.974209 C17.0808428,26.3860386 16.9,25.7234711 16.9,24.9864865 C16.9,24.2495019 17.0808428,23.5869344 17.4425338,22.998764 C17.8042248,22.4105936 18.3019901,21.9499852 18.9358446,21.6169249 C19.5696991,21.2838645 20.2841176,21.1173368 21.0791216,21.1173368 C21.8741256,21.1173368 22.5885441,21.2838645 23.2223986,21.6169249 C23.8562532,21.9499852 24.3540185,22.4105936 24.7157095,22.998764 C25.0774005,23.5869344 25.2582432,24.2495019 25.2582432,24.9864865 C25.2582432,25.7234711 25.0774005,26.3860386 24.7157095,26.974209 C24.3540185,27.5623793 23.8562532,28.0229878 23.2223986,28.3560481 C22.5885441,28.6891085 21.8741256,28.8556361 21.0791216,28.8556361 Z M21.0791216,27.1123929 C21.4587181,27.1123929 21.8024985,27.0238143 22.110473,26.8466546 C22.4184475,26.6694948 22.6619586,26.4197033 22.8410135,26.0972726 C23.0200685,25.7748418 23.1095946,25.4045835 23.1095946,24.9864865 C23.1095946,24.5683895 23.0200685,24.1981311 22.8410135,23.8757004 C22.6619586,23.5532696 22.4184475,23.3034781 22.110473,23.1263184 C21.8024985,22.9491586 21.4587181,22.8605801 21.0791216,22.8605801 C20.6995251,22.8605801 20.3557448,22.9491586 20.0477703,23.1263184 C19.7397958,23.3034781 19.4962847,23.5532696 19.3172297,23.8757004 C19.1381748,24.1981311 19.0486486,24.5683895 19.0486486,24.9864865 C19.0486486,25.4045835 19.1381748,25.7748418 19.3172297,26.0972726 C19.4962847,26.4197033 19.7397958,26.6694948 20.0477703,26.8466546 C20.3557448,27.0238143 20.6995251,27.1123929 21.0791216,27.1123929 Z M30.6513514,28.8556361 C29.5340485,28.8556361 28.665645,28.5544691 28.0461149,27.9521259 C27.4265847,27.3497827 27.1168243,26.4958856 27.1168243,25.3904087 L27.1168243,21.2661503 L29.2439865,21.2661503 L29.2439865,25.3266315 C29.2439865,26.517145 29.7202655,27.1123929 30.6728378,27.1123929 C31.618248,27.1123929 32.0909459,26.517145 32.0909459,25.3266315 L32.0909459,21.2661503 L34.1858784,21.2661503 L34.1858784,25.3904087 C34.1858784,26.4958856 33.876118,27.3497827 33.2565878,27.9521259 C32.6370577,28.5544691 31.7686542,28.8556361 30.6513514,28.8556361 Z M37.9137838,22.9349868 L35.6039865,22.9349868 L35.6039865,21.2661503 L42.34,21.2661503 L42.34,22.9349868 L40.0409459,22.9349868 L40.0409459,28.7068227 L37.9137838,28.7068227 L37.9137838,22.9349868 Z" id="Pop-Out" fill="#252E3B"></path>
            </g>
        </g>
    </g>
</svg>