<?xml version="1.0" encoding="UTF-8"?>
<svg width="92px" height="92px" viewBox="0 0 92 92" version="1.1" xmlns="http://www.w3.org/2000/svg" xmlns:xlink="http://www.w3.org/1999/xlink" style="background: #FFFFFF;">
    <!-- Generator: Sketch 49.1 (51147) - http://www.bohemiancoding.com/sketch -->
    <title>Artboard</title>
    <desc>Created with Sketch.</desc>
    <defs></defs>
    <g id="Artboard" stroke="none" stroke-width="1" fill="none" fill-rule="evenodd">
        <g id="18">
            <rect id="Rectangle-25-Copy-15" x="3.18323146e-12" y="0" width="92" height="92"></rect>
            <path d="M25.27,53.605 C25.480001,53.605 25.6524993,53.6699993 25.7875,53.8 C25.9225007,53.9300006 25.99,54.0999989 25.99,54.31 C25.99,54.510001 25.9225007,54.6749994 25.7875,54.805 C25.6524993,54.9350006 25.480001,55 25.27,55 L20.2,55 C19.989999,55 19.8175007,54.9300007 19.6825,54.79 C19.5474993,54.6499993 19.48,54.480001 19.48,54.28 L19.48,45.22 C19.48,45.019999 19.5499993,44.8500007 19.69,44.71 C19.8300007,44.5699993 20.0099989,44.5 20.23,44.5 C20.430001,44.5 20.6024993,44.5699993 20.7475,44.71 C20.8925007,44.8500007 20.965,45.019999 20.965,45.22 L20.965,53.605 L25.27,53.605 Z M29.215,54.265 C29.215,54.4750011 29.1400007,54.6499993 28.99,54.79 C28.8399992,54.9300007 28.665001,55 28.465,55 C28.2449989,55 28.0675007,54.9300007 27.9325,54.79 C27.7974993,54.6499993 27.73,54.4750011 27.73,54.265 L27.73,45.22 C27.73,45.019999 27.7999993,44.8500007 27.94,44.71 C28.0800007,44.5699993 28.2599989,44.5 28.48,44.5 C28.680001,44.5 28.8524993,44.5699993 28.9975,44.71 C29.1425007,44.8500007 29.215,45.019999 29.215,45.22 L29.215,54.265 Z M39.55,44.5 C39.7400009,44.5 39.8949994,44.5624994 40.015,44.6875 C40.1350006,44.8125006 40.195,44.969999 40.195,45.16 L40.195,54.265 C40.195,54.4750011 40.1275007,54.6499993 39.9925,54.79 C39.8574993,54.9300007 39.685001,55 39.475,55 C39.3649994,55 39.2575005,54.9825002 39.1525,54.9475 C39.0474995,54.9124998 38.9650003,54.8600003 38.905,54.79 L33.01,47.11 L33.01,54.34 C33.01,54.530001 32.9475006,54.6874994 32.8225,54.8125 C32.6974994,54.9375006 32.5400009,55 32.35,55 C32.159999,55 32.0050006,54.9375006 31.885,54.8125 C31.7649994,54.6874994 31.705,54.530001 31.705,54.34 L31.705,45.22 C31.705,45.0099989 31.7724993,44.8375007 31.9075,44.7025 C32.0425007,44.5674993 32.209999,44.5 32.41,44.5 C32.5300006,44.5 32.6449995,44.5224998 32.755,44.5675 C32.8650005,44.6125002 32.9499997,44.6749996 33.01,44.755 L38.89,52.45 L38.89,45.16 C38.89,44.969999 38.9524994,44.8125006 39.0775,44.6875 C39.2025006,44.5624994 39.359999,44.5 39.55,44.5 Z M48.625,53.62 C48.835001,53.62 49.0074993,53.6899993 49.1425,53.83 C49.2775007,53.9700007 49.345,54.1349991 49.345,54.325 C49.345,54.525001 49.2775007,54.6874994 49.1425,54.8125 C49.0074993,54.9375006 48.835001,55 48.625,55 L43.405,55 C43.204999,55 43.0350007,54.9300007 42.895,54.79 C42.7549993,54.6499993 42.685,54.480001 42.685,54.28 L42.685,45.22 C42.685,45.019999 42.7549993,44.8500007 42.895,44.71 C43.0350007,44.5699993 43.204999,44.5 43.405,44.5 L48.625,44.5 C48.835001,44.5 49.0074993,44.5649994 49.1425,44.695 C49.2775007,44.8250006 49.345,44.9949989 49.345,45.205 C49.345,45.405001 49.2775007,45.5674994 49.1425,45.6925 C49.0074993,45.8175006 48.835001,45.88 48.625,45.88 L44.17,45.88 L44.17,48.94 L47.95,48.94 C48.160001,48.94 48.3324993,49.0049993 48.4675,49.135 C48.6025007,49.2650007 48.67,49.429999 48.67,49.63 C48.67,49.840001 48.6025007,50.0049994 48.4675,50.125 C48.3324993,50.2450006 48.160001,50.305 47.95,50.305 L44.17,50.305 L44.17,53.62 L48.625,53.62 Z M62.83,44.485 C63.0400011,44.485 63.2074994,44.5524993 63.3325,44.6875 C63.4575006,44.8225007 63.52,44.9949989 63.52,45.205 L63.52,50.965 C63.52,51.755004 63.3450017,52.4649968 62.995,53.095 C62.6449983,53.7250031 62.1625031,54.2174982 61.5475,54.5725 C60.9324969,54.9275018 60.2400038,55.105 59.47,55.105 C58.6899961,55.105 57.9900031,54.9275018 57.37,54.5725 C56.7499969,54.2174982 56.2650017,53.7250031 55.915,53.095 C55.5649983,52.4649968 55.39,51.755004 55.39,50.965 L55.39,45.205 C55.39,44.9949989 55.4599993,44.8225007 55.6,44.6875 C55.7400007,44.5524993 55.9199989,44.485 56.14,44.485 C56.3300009,44.485 56.4974993,44.5549993 56.6425,44.695 C56.7875007,44.8350007 56.86,45.004999 56.86,45.205 L56.86,50.965 C56.86,51.4850026 56.9799988,51.9524979 57.22,52.3675 C57.4600012,52.7825021 57.779998,53.1049989 58.18,53.335 C58.580002,53.5650012 59.0099977,53.68 59.47,53.68 C59.9500024,53.68 60.394998,53.5650012 60.805,53.335 C61.215002,53.1049989 61.5424988,52.7825021 61.7875,52.3675 C62.0325012,51.9524979 62.155,51.4850026 62.155,50.965 L62.155,45.205 C62.155,44.9949989 62.2149994,44.8225007 62.335,44.6875 C62.4550006,44.5524993 62.6199989,44.485 62.83,44.485 Z M70.21,44.5 C70.7400026,44.5 71.2299977,44.6424986 71.68,44.9275 C72.1300022,45.2125014 72.4874987,45.5999975 72.7525,46.09 C73.0175013,46.5800025 73.15,47.1199971 73.15,47.71 C73.15,48.3000029 73.0175013,48.8449975 72.7525,49.345 C72.4874987,49.8450025 72.1300022,50.2399985 71.68,50.53 C71.2299977,50.8200014 70.7400026,50.965 70.21,50.965 L67.39,50.965 L67.39,54.28 C67.39,54.480001 67.3250006,54.6499993 67.195,54.79 C67.0649993,54.9300007 66.900001,55 66.7,55 C66.489999,55 66.3225006,54.9325007 66.1975,54.7975 C66.0724994,54.6624993 66.01,54.4900011 66.01,54.28 L66.01,45.22 C66.01,45.019999 66.0799993,44.8500007 66.22,44.71 C66.3600007,44.5699993 66.529999,44.5 66.73,44.5 L70.21,44.5 Z M70.21,49.6 C70.4800013,49.6 70.7299988,49.5125009 70.96,49.3375 C71.1900012,49.1624991 71.3724993,48.9300014 71.5075,48.64 C71.6425007,48.3499986 71.71,48.0400017 71.71,47.71 C71.71,47.1999974 71.5625015,46.7675018 71.2675,46.4125 C70.9724985,46.0574982 70.620002,45.88 70.21,45.88 L67.39,45.88 L67.39,49.6 L70.21,49.6 Z" id="LINE-UP" fill="#252E3B"></path>
            <rect id="Rectangle-28-Copy" fill="#FFDA3B" transform="translate(46.000000, 37.000000) rotate(-270.000000) translate(-46.000000, -37.000000) " x="45" y="10" width="2" height="54"></rect>
        </g>
    </g>
</svg>