<?xml version="1.0" encoding="UTF-8"?>
<svg width="92px" height="92px" viewBox="0 0 92 92" version="1.1" xmlns="http://www.w3.org/2000/svg" xmlns:xlink="http://www.w3.org/1999/xlink">
    <!-- Generator: Sketch 48.1 (47250) - http://www.bohemiancoding.com/sketch -->
    <title>Artboard</title>
    <desc>Created with Sketch.</desc>
    <defs></defs>
    <g id="New-Editor" stroke="none" stroke-width="1" fill="none" fill-rule="evenodd">
        <g id="Artboard">
            <g id="Animation02">
                <rect id="Rectangle-25-Copy-10" fill="#FFFFFF" x="3.18323146e-12" y="0" width="92" height="92"></rect>
                <path d="M36.8724747,53.9149999 C36.9571751,53.9149999 37.0303244,53.9457996 37.0919247,54.0073999 C37.153525,54.0690002 37.1843247,54.1421494 37.1843247,54.2268499 L37.1843247,61.68815 C37.1843247,61.7728504 37.153525,61.8459997 37.0919247,61.9076 C37.0303244,61.9692003 36.9571751,62 36.8724747,62 L35.9369247,62 C35.8522243,62 35.779075,61.9692003 35.7174747,61.9076 C35.6558744,61.8459997 35.6250747,61.7728504 35.6250747,61.68815 L35.6250747,58.6389499 L32.1369746,58.6389499 L32.1369746,61.68815 C32.1369746,61.7728504 32.1061749,61.8459997 32.0445746,61.9076 C31.9829743,61.9692003 31.9098251,62 31.8251246,62 L30.8895746,62 C30.8048742,62 30.7317249,61.9711253 30.6701246,61.913375 C30.6085243,61.8556247 30.5777246,61.7805505 30.5777246,61.68815 L30.5777246,54.2268499 C30.5777246,54.1421494 30.6085243,54.0690002 30.6701246,54.0073999 C30.7317249,53.9457996 30.8048742,53.9149999 30.8895746,53.9149999 L31.8251246,53.9149999 C31.9098251,53.9149999 31.9829743,53.9457996 32.0445746,54.0073999 C32.1061749,54.0690002 32.1369746,54.1421494 32.1369746,54.2268499 L32.1369746,57.1951999 L35.6250747,57.1951999 L35.6250747,54.2268499 C35.6250747,54.1421494 35.6558744,54.0690002 35.7174747,54.0073999 C35.779075,53.9457996 35.8522243,53.9149999 35.9369247,53.9149999 L36.8724747,53.9149999 Z M43.3910749,53.9149999 C43.5142755,53.9149999 43.6066746,53.9477245 43.6682749,54.0131749 C43.7298752,54.0786252 43.7837747,54.1767992 43.8299749,54.3076999 L46.6597249,61.6073 C46.667425,61.6304001 46.6712749,61.6573498 46.6712749,61.68815 C46.6712749,61.7728504 46.6404752,61.8459997 46.5788749,61.9076 C46.5172746,61.9692003 46.4441254,62 46.3594249,62 L45.5278249,62 C45.3738242,62 45.2660252,61.9672753 45.2044249,61.901825 C45.1428246,61.8363747 45.100475,61.7728503 45.0773749,61.71125 L44.5807249,60.4292 L40.9309248,60.4292 L40.4342748,61.71125 C40.4111747,61.7728503 40.3688251,61.8363747 40.3072248,61.901825 C40.2456245,61.9672753 40.1378256,62 39.9838248,62 L39.1522248,62 C39.0675244,62 38.9943751,61.9692003 38.9327748,61.9076 C38.8711745,61.8459997 38.8403748,61.7728504 38.8403748,61.68815 C38.8403748,61.6573498 38.8442248,61.6304001 38.8519248,61.6073 L41.6816749,54.3076999 C41.7278751,54.1767992 41.7817746,54.0786252 41.8433749,54.0131749 C41.9049752,53.9477245 41.9973742,53.9149999 42.1205749,53.9149999 L43.3910749,53.9149999 Z M44.0263249,58.98545 L42.7558249,55.6936999 L41.4853249,58.98545 L44.0263249,58.98545 Z M53.6980751,60.55625 C53.7827756,60.55625 53.8559248,60.5870497 53.9175251,60.64865 C53.9791254,60.7102503 54.0099251,60.7833996 54.0099251,60.8681 L54.0099251,61.68815 C54.0099251,61.7728504 53.9791254,61.8459997 53.9175251,61.9076 C53.8559248,61.9692003 53.7827756,62 53.6980751,62 L48.639175,62 C48.5544746,62 48.4813253,61.9692003 48.419725,61.9076 C48.3581247,61.8459997 48.327325,61.7728504 48.327325,61.68815 L48.327325,54.2268499 C48.327325,54.1421494 48.3581247,54.0690002 48.419725,54.0073999 C48.4813253,53.9457996 48.5544746,53.9149999 48.639175,53.9149999 L49.5747251,53.9149999 C49.6594255,53.9149999 49.7325748,53.9457996 49.7941751,54.0073999 C49.8557754,54.0690002 49.8865751,54.1421494 49.8865751,54.2268499 L49.8865751,60.55625 L53.6980751,60.55625 Z M60.9674253,53.9149999 C61.0521257,53.9149999 61.125275,53.9457996 61.1868753,54.0073999 C61.2484756,54.0690002 61.2792753,54.1421494 61.2792753,54.2268499 L61.2792753,55.0468999 C61.2792753,55.1316003 61.2484756,55.2047496 61.1868753,55.2663499 C61.125275,55.3279502 61.0521257,55.3587499 60.9674253,55.3587499 L57.2829753,55.3587499 L57.2829753,57.5994499 L60.7364253,57.5994499 C60.8211257,57.5994499 60.894275,57.6302496 60.9558753,57.6918499 C61.0174756,57.7534502 61.0482753,57.8265995 61.0482753,57.9112999 L61.0482753,58.7313499 C61.0482753,58.8160504 61.0174756,58.8891996 60.9558753,58.9507999 C60.894275,59.0124003 60.8211257,59.0432 60.7364253,59.0432 L57.2829753,59.0432 L57.2829753,61.68815 C57.2829753,61.7728504 57.2521756,61.8459997 57.1905753,61.9076 C57.1289749,61.9692003 57.0558257,62 56.9711252,62 L56.0355752,62 C55.9508748,62 55.8777255,61.9692003 55.8161252,61.9076 C55.7545249,61.8459997 55.7237252,61.7728504 55.7237252,61.68815 L55.7237252,54.2268499 C55.7237252,54.1421494 55.7545249,54.0690002 55.8161252,54.0073999 C55.8777255,53.9457996 55.9508748,53.9149999 56.0355752,53.9149999 L60.9674253,53.9149999 Z" id="HALF" fill="#252E3B"></path>
                <path d="M29.5386246,30.9149999 C29.623325,30.9149999 29.6964743,30.9457996 29.7580746,31.0073999 C29.8196749,31.0690002 29.8504746,31.1421494 29.8504746,31.2268499 L29.8504746,38.68815 C29.8504746,38.7728504 29.8196749,38.8459997 29.7580746,38.9076 C29.6964743,38.9692003 29.623325,39 29.5386246,39 L28.6030746,39 C28.5183741,39 28.4452249,38.9692003 28.3836245,38.9076 C28.3220242,38.8459997 28.2912245,38.7728504 28.2912245,38.68815 L28.2912245,35.6389499 L24.8031245,35.6389499 L24.8031245,38.68815 C24.8031245,38.7728504 24.7723248,38.8459997 24.7107245,38.9076 C24.6491242,38.9692003 24.5759749,39 24.4912745,39 L23.5557245,39 C23.471024,39 23.3978748,38.9711253 23.3362745,38.913375 C23.2746742,38.8556247 23.2438745,38.7805505 23.2438745,38.68815 L23.2438745,31.2268499 C23.2438745,31.1421494 23.2746742,31.0690002 23.3362745,31.0073999 C23.3978748,30.9457996 23.471024,30.9149999 23.5557245,30.9149999 L24.4912745,30.9149999 C24.5759749,30.9149999 24.6491242,30.9457996 24.7107245,31.0073999 C24.7723248,31.0690002 24.8031245,31.1421494 24.8031245,31.2268499 L24.8031245,34.1951999 L28.2912245,34.1951999 L28.2912245,31.2268499 C28.2912245,31.1421494 28.3220242,31.0690002 28.3836245,31.0073999 C28.4452249,30.9457996 28.5183741,30.9149999 28.6030746,30.9149999 L29.5386246,30.9149999 Z M36.5022247,30.9149999 C36.6254254,30.9149999 36.7178244,30.9477245 36.7794247,31.0131749 C36.841025,31.0786252 36.8949245,31.1767992 36.9411247,31.3076999 L39.7708748,38.6073 C39.7785748,38.6304001 39.7824248,38.6573498 39.7824248,38.68815 C39.7824248,38.7728504 39.7516251,38.8459997 39.6900248,38.9076 C39.6284245,38.9692003 39.5552752,39 39.4705748,39 L38.6389748,39 C38.484974,39 38.3771751,38.9672753 38.3155748,38.901825 C38.2539745,38.8363747 38.2116249,38.7728503 38.1885248,38.71125 L37.6918748,37.4292 L34.0420747,37.4292 L33.5454247,38.71125 C33.5223246,38.7728503 33.479975,38.8363747 33.4183747,38.901825 C33.3567744,38.9672753 33.2489755,39 33.0949747,39 L32.2633747,39 C32.1786742,39 32.105525,38.9692003 32.0439247,38.9076 C31.9823244,38.8459997 31.9515247,38.7728504 31.9515247,38.68815 C31.9515247,38.6573498 31.9553746,38.6304001 31.9630747,38.6073 L34.7928247,31.3076999 C34.8390249,31.1767992 34.8929244,31.0786252 34.9545247,31.0131749 C35.016125,30.9477245 35.1085241,30.9149999 35.2317247,30.9149999 L36.5022247,30.9149999 Z M37.1374747,35.98545 L35.8669747,32.6936999 L34.5964747,35.98545 L37.1374747,35.98545 Z M47.254225,37.55625 C47.3389254,37.55625 47.4120747,37.5870497 47.473675,37.64865 C47.5352753,37.7102503 47.566075,37.7833996 47.566075,37.8681 L47.566075,38.68815 C47.566075,38.7728504 47.5352753,38.8459997 47.473675,38.9076 C47.4120747,38.9692003 47.3389254,39 47.254225,39 L42.1953249,39 C42.1106245,39 42.0374752,38.9692003 41.9758749,38.9076 C41.9142746,38.8459997 41.8834749,38.7728504 41.8834749,38.68815 L41.8834749,31.2268499 C41.8834749,31.1421494 41.9142746,31.0690002 41.9758749,31.0073999 C42.0374752,30.9457996 42.1106245,30.9149999 42.1953249,30.9149999 L43.1308749,30.9149999 C43.2155753,30.9149999 43.2887246,30.9457996 43.3503249,31.0073999 C43.4119252,31.0690002 43.4427249,31.1421494 43.4427249,31.2268499 L43.4427249,37.55625 L47.254225,37.55625 Z M54.9685751,30.9149999 C55.0532756,30.9149999 55.1264248,30.9457996 55.1880252,31.0073999 C55.2496255,31.0690002 55.2804252,31.1421494 55.2804252,31.2268499 L55.2804252,32.0468999 C55.2804252,32.1316003 55.2496255,32.2047496 55.1880252,32.2663499 C55.1264248,32.3279502 55.0532756,32.3587499 54.9685751,32.3587499 L51.2841251,32.3587499 L51.2841251,34.5994499 L54.7375751,34.5994499 C54.8222756,34.5994499 54.8954248,34.6302496 54.9570251,34.6918499 C55.0186255,34.7534502 55.0494251,34.8265995 55.0494251,34.9112999 L55.0494251,35.7313499 C55.0494251,35.8160504 55.0186255,35.8891996 54.9570251,35.9507999 C54.8954248,36.0124003 54.8222756,36.0432 54.7375751,36.0432 L51.2841251,36.0432 L51.2841251,38.68815 C51.2841251,38.7728504 51.2533254,38.8459997 51.1917251,38.9076 C51.1301248,38.9692003 51.0569755,39 50.9722751,39 L50.0367251,39 C49.9520246,39 49.8788754,38.9692003 49.8172751,38.9076 C49.7556748,38.8459997 49.7248751,38.7728504 49.7248751,38.68815 L49.7248751,31.2268499 C49.7248751,31.1421494 49.7556748,31.0690002 49.8172751,31.0073999 C49.8788754,30.9457996 49.9520246,30.9149999 50.0367251,30.9149999 L54.9685751,30.9149999 Z M66.5857754,35.0267999 C66.6319757,34.8573991 66.7359246,34.7726999 66.8976255,34.7726999 L67.7754255,34.7726999 C67.8601259,34.7726999 67.9352001,34.8034996 68.0006505,34.8650999 C68.0661008,34.9267002 68.0949755,34.9998495 68.0872755,35.0845499 C68.0564753,35.4079516 67.9583013,35.767923 67.7927505,36.164475 C67.6271996,36.5610269 67.3981269,36.9479481 67.1055255,37.32525 L68.2605255,38.43405 C68.3144257,38.4879503 68.3490754,38.5341498 68.3644755,38.57265 C68.3798756,38.6111502 68.3875755,38.6457998 68.3875755,38.6766 C68.3875755,38.7690005 68.3587008,38.8459997 68.3009505,38.9076 C68.2432002,38.9692003 68.1719759,39 68.0872755,39 L66.9438255,39 C66.859125,39 66.7975256,38.9865251 66.7590255,38.959575 C66.7205253,38.9326249 66.6858756,38.9076001 66.6550754,38.8845 L66.0660254,38.3301 C65.7349238,38.5688012 65.3672524,38.7593743 64.9630004,38.901825 C64.5587484,39.0442757 64.1179278,39.1155 63.6405254,39.1155 C63.3017237,39.1155 62.968702,39.0693005 62.6414504,38.9769 C62.3141987,38.8844995 62.0216017,38.7459009 61.7636504,38.5611 C61.5056991,38.3762991 61.2958762,38.1491513 61.1341754,37.87965 C60.9724745,37.6101486 60.8916254,37.2983017 60.8916254,36.9441 C60.8916254,36.6745986 60.930125,36.432051 61.0071254,36.21645 C61.0841257,36.0008489 61.1899997,35.8045008 61.3247504,35.6273999 C61.459501,35.4502991 61.6134995,35.2886007 61.7867504,35.1422999 C61.9600012,34.9959992 62.1428744,34.8574006 62.3353754,34.7264999 C62.0350739,34.3953983 61.8156261,34.0854764 61.6770254,33.7967249 C61.5384247,33.5079735 61.4691254,33.2096014 61.4691254,32.9015999 C61.4691254,32.5935984 61.5249498,32.3106262 61.6366004,32.0526749 C61.7482509,31.7947236 61.9041744,31.5733508 62.1043754,31.3885499 C62.3045764,31.2037489 62.543274,31.0593754 62.8204754,30.9554249 C63.0976768,30.8514743 63.4056737,30.7994999 63.7444754,30.7994999 C64.0755771,30.7994999 64.381649,30.8533993 64.6627004,30.9611999 C64.9437518,31.0690004 65.1824494,31.2172239 65.3788004,31.4058749 C65.5751514,31.5945258 65.7291499,31.8158986 65.8408004,32.0699999 C65.952451,32.3241012 66.0082754,32.5974484 66.0082754,32.8900499 C66.0082754,33.3520522 65.8870016,33.7389734 65.6444504,34.0508249 C65.4018992,34.3626765 65.0688775,34.6648985 64.6453754,34.9574999 L66.0198254,36.2742 C66.1584261,36.073999 66.273925,35.866101 66.3663254,35.6504999 C66.4587259,35.4348989 66.5318752,35.2270009 66.5857754,35.0267999 Z M63.4095254,35.7659999 C63.1169239,35.9431008 62.8743763,36.122124 62.6818754,36.303075 C62.4893744,36.4840259 62.3931254,36.6861488 62.3931254,36.90945 C62.3931254,37.0249505 62.4297,37.1327495 62.5028504,37.23285 C62.5760007,37.3329505 62.6703248,37.4176496 62.7858254,37.48695 C62.901326,37.5562503 63.0341496,37.6101498 63.1843004,37.64865 C63.3344511,37.6871502 63.4865246,37.7064 63.6405254,37.7064 C63.8946267,37.7064 64.1352493,37.6698253 64.3624004,37.596675 C64.5895516,37.5235246 64.8032244,37.4215006 65.0034254,37.2906 L63.4095254,35.7659999 Z M63.5943254,33.9410999 C63.8946269,33.748599 64.1217746,33.5811256 64.2757754,33.4386749 C64.4297762,33.2962242 64.5067754,33.113351 64.5067754,32.8900499 C64.5067754,32.7360491 64.447101,32.5897506 64.3277504,32.4511499 C64.2083998,32.3125492 64.0139768,32.2432499 63.7444754,32.2432499 C63.4903741,32.2432499 63.297876,32.3067743 63.1669754,32.4338249 C63.0360747,32.5608755 62.9706254,32.712949 62.9706254,32.8900499 C62.9706254,33.0902509 63.0302998,33.2711991 63.1496504,33.4328999 C63.269001,33.5946007 63.4172245,33.763999 63.5943254,33.9410999 Z" id="HALF-&amp;" fill="#FFDA3B"></path>
                <rect id="Rectangle-28-Copy" fill="#FFDA3B" transform="translate(46.000000, 46.000000) rotate(-270.000000) translate(-46.000000, -46.000000) " x="45" y="20" width="2" height="52"></rect>
            </g>
        </g>
    </g>
</svg>