<?xml version="1.0" encoding="UTF-8"?>
<svg width="92px" height="92px" viewBox="0 0 92 92" version="1.1" xmlns="http://www.w3.org/2000/svg" xmlns:xlink="http://www.w3.org/1999/xlink" style="background: #FFFFFF;">
    <!-- Generator: Sketch 48.2 (47327) - http://www.bohemiancoding.com/sketch -->
    <title>Artboard</title>
    <desc>Created with Sketch.</desc>
    <defs></defs>
    <g id="New-Editor" stroke="none" stroke-width="1" fill="none" fill-rule="evenodd">
        <g id="Artboard">
            <g id="19">
                <rect id="Rectangle-25-Copy-15" x="0" y="0" width="92" height="92"></rect>
                <path d="M30.7493074,32.1058362 C29.9171002,32.1058362 29.2601497,32.3829467 28.7784364,32.937176 C28.2967231,33.4914053 28.05587,34.2502219 28.05587,35.2136486 C28.05587,36.2047004 28.2880903,36.9704232 28.752538,37.5108399 C29.2169856,38.0512566 29.8791156,38.321461 30.738948,38.321461 C31.2672788,38.321461 31.869843,38.226501 32.5466589,38.0365782 L32.5466589,38.8083516 C32.0217813,39.0051807 31.3743269,39.1035937 30.6042762,39.1035937 C29.4889113,39.1035937 28.6282285,38.7651909 28.022202,38.088375 C27.4161756,37.4115592 27.1131669,36.4498735 27.1131669,35.2032892 C27.1131669,34.4228791 27.25906,33.7391672 27.5508505,33.152133 C27.842641,32.5650989 28.263918,32.112744 28.8146942,31.795055 C29.3654704,31.4773659 30.0137881,31.3185237 30.7596668,31.3185237 C31.5538895,31.3185237 32.2479606,31.4635535 32.8419011,31.7536175 L32.4689636,32.5098518 C31.895742,32.2405067 31.322529,32.1058362 30.7493074,32.1058362 Z M38.613297,39 L34.3918519,39 L34.3918519,31.4272972 L38.613297,31.4272972 L38.613297,32.2094299 L35.2723987,32.2094299 L35.2723987,34.6490627 L38.4112892,34.6490627 L38.4112892,35.4260158 L35.2723987,35.4260158 L35.2723987,38.2126875 L38.613297,38.2126875 L38.613297,39 Z M46.3995914,39 L45.394732,39 L41.2561619,32.6445237 L41.2147244,32.6445237 C41.2699746,33.3904024 41.2975994,34.0741143 41.2975994,34.6956798 L41.2975994,39 L40.4843885,39 L40.4843885,31.4272972 L41.4788884,31.4272972 L45.6070992,37.756875 L45.6485367,37.756875 C45.6416304,37.6636402 45.6260915,37.3640846 45.6019195,36.8581993 C45.5777475,36.352314 45.5691148,35.9906028 45.5760211,35.7730548 L45.5760211,31.4272972 L46.3995914,31.4272972 L46.3995914,39 Z M51.0055577,39 L50.1250108,39 L50.1250108,32.2094299 L47.7268156,32.2094299 L47.7268156,31.4272972 L53.4037529,31.4272972 L53.4037529,32.2094299 L51.0055577,32.2094299 L51.0055577,39 Z M58.957602,39 L54.7361568,39 L54.7361568,31.4272972 L58.957602,31.4272972 L58.957602,32.2094299 L55.6167037,32.2094299 L55.6167037,34.6490627 L58.7555942,34.6490627 L58.7555942,35.4260158 L55.6167037,35.4260158 L55.6167037,38.2126875 L58.957602,38.2126875 L58.957602,39 Z M61.7092403,35.8507501 L61.7092403,39 L60.8286934,39 L60.8286934,31.4272972 L62.905748,31.4272972 C63.8346433,31.4272972 64.520945,31.6051313 64.9646737,31.9608049 C65.4084025,32.3164786 65.6302635,32.8517076 65.6302635,33.566508 C65.6302635,34.5679192 65.1226593,35.2447249 64.1074355,35.5969454 L66.1637713,39 L65.1226542,39 L63.2890449,35.8507501 L61.7092403,35.8507501 Z M61.7092403,35.0945158 L62.9161074,35.0945158 C63.537673,35.0945158 63.9934809,34.9710678 64.2835448,34.7241681 C64.5736088,34.4772685 64.7186386,34.1069245 64.7186386,33.6131252 C64.7186386,33.1124196 64.571019,32.7515716 64.2757753,32.5305705 C63.9805317,32.3095695 63.506595,32.1990706 62.8539511,32.1990706 L61.7092403,32.1990706 L61.7092403,35.0945158 Z" id="CENTER" stroke="#252E3B" stroke-width="0.2" fill="#252E3B"></path>
                <rect id="Rectangle" fill="#FFDA3B" x="20" y="44" width="52" height="19"></rect>
                <path d="M33.7904051,51.7095382 C32.5025987,51.5725375 31.5664414,51.5040382 30.9819051,51.5040382 C30.3973689,51.5040382 30.0571556,51.5200214 29.9612551,51.5519882 C29.8653547,51.583955 29.8174051,51.650171 29.8174051,51.7506382 C29.8174051,51.8511054 29.8722046,51.9287379 29.9818051,51.9835382 C30.0914057,52.0383385 30.4361856,52.1296709 31.0161551,52.2575382 C31.5961247,52.3854055 32.0710533,52.5109876 32.4409551,52.6342882 C32.8108569,52.7575888 33.1442203,52.9311204 33.4410551,53.1548882 C33.7378899,53.3786559 33.9342546,53.6526532 34.0301551,53.9768882 C34.1260556,54.3011231 34.1740051,54.7372354 34.1740051,55.2852381 C34.1740051,56.4177771 33.8726081,57.226069 33.2698051,57.7101381 C32.6670021,58.1942072 31.7582445,58.4362381 30.5435051,58.4362381 C29.9589689,58.4362381 29.3447584,58.3951385 28.7008551,58.3129381 C28.0569519,58.2307377 27.5614736,58.1485385 27.2144052,58.0663381 L26.6801052,57.9430381 L26.8171052,55.5181381 C28.2145121,55.7190725 29.360734,55.8195381 30.2558051,55.8195381 C30.7307408,55.8195381 30.9682051,55.7145058 30.9682051,55.5044381 C30.9682051,55.4131043 30.9134057,55.3468883 30.8038051,55.3057881 C30.6942046,55.2646879 30.3973742,55.2076052 29.9133051,55.1345381 C28.6346321,54.9336038 27.7646908,54.6207903 27.3034552,54.1960882 C26.8422195,53.771386 26.6116052,53.0749763 26.6116052,52.1068382 C26.6116052,50.873832 26.9084355,50.0290072 27.5021052,49.5723382 C28.0957748,49.1156693 29.009099,48.8873382 30.2421051,48.8873382 C31.1097761,48.8873382 32.1281326,48.974104 33.2972051,49.1476382 L33.8726051,49.2435382 L33.7904051,51.7095382 Z M34.555068,51.6547382 L34.555068,49.0654382 L41.4050679,49.0654382 L41.4050679,51.6547382 L39.624068,51.6547382 L39.624068,58.2444381 L36.445668,58.2444381 L36.445668,51.6547382 L34.555068,51.6547382 Z M40.9093309,58.2444381 L42.9369309,49.0654382 L47.7456308,49.0654382 L49.8143308,58.2444381 L46.6085308,58.2444381 L46.3482308,57.1895381 L44.2521308,57.1895381 L44.0329308,58.2444381 L40.9093309,58.2444381 Z M45.1837308,51.5588382 L44.6631308,54.7646381 L46.0194308,54.7646381 L45.5262308,51.5588382 L45.1837308,51.5588382 Z M57.8262936,52.8466382 L57.8262936,57.9704381 C56.173152,58.2353061 54.9492976,58.3677381 54.1546937,58.3677381 C53.3600897,58.3677381 52.6819465,58.278689 52.1202437,58.1005881 C51.5585409,57.9224872 51.117862,57.6279402 50.7981937,57.2169381 C50.4785254,56.8059361 50.2570443,56.3218742 50.1337437,55.7647381 C50.0104431,55.207602 49.9487937,54.4997758 49.9487937,53.6412382 C49.9487937,51.878496 50.2775904,50.6455084 50.9351937,49.9422382 C51.592797,49.238968 52.7024859,48.8873382 54.2642937,48.8873382 C54.730096,48.8873382 55.2552574,48.9261545 55.8397936,49.0037882 C56.4243299,49.0814219 56.8901252,49.1567712 57.2371936,49.2298382 L57.7577936,49.3531382 L57.7577936,51.7506382 C56.442587,51.6319043 55.5087131,51.5725382 54.9561436,51.5725382 C54.4035742,51.5725382 54.0428112,51.5976546 53.8738437,51.6478882 C53.7048761,51.6981218 53.5701608,51.7574878 53.4696937,51.8259882 C53.3692265,51.8944885 53.2961606,52.0292038 53.2504937,52.2301382 C53.18656,52.5132729 53.1545937,53.0110346 53.1545937,53.7234382 C53.1545937,54.4358417 53.2367928,54.9541532 53.4011937,55.2783881 C53.5655945,55.6026231 53.8989578,55.7647381 54.4012936,55.7647381 L54.8670936,55.7510381 L54.8670936,55.0660381 L54.4560936,55.0660381 L54.4423936,52.8466382 L57.8262936,52.8466382 Z M58.8101565,58.2444381 L58.8101565,49.0654382 L65.6875564,49.0654382 L65.6875564,51.5999382 L61.9885565,51.5999382 L61.9885565,52.3808382 L64.8655565,52.3808382 L64.8655565,54.8879381 L61.9885565,54.8879381 L61.9885565,55.7099381 L65.6875564,55.7099381 L65.6875564,58.2444381 L58.8101565,58.2444381 Z" id="STAGE" fill="#252E3B"></path>
            </g>
        </g>
    </g>
</svg>