<?xml version="1.0" encoding="UTF-8"?>
<svg width="92px" height="92px" viewBox="0 0 92 92" version="1.1" xmlns="http://www.w3.org/2000/svg" xmlns:xlink="http://www.w3.org/1999/xlink" style="background: #FFFFFF;">
    <!-- Generator: Sketch 49.1 (51147) - http://www.bohemiancoding.com/sketch -->
    <title>Artboard</title>
    <desc>Created with Sketch.</desc>
    <defs></defs>
    <g id="Artboard" stroke="none" stroke-width="1" fill="none" fill-rule="evenodd">
        <g id="Animation22">
            <rect id="Rectangle-25-Copy-15" x="0" y="0" width="92" height="92"></rect>
            <path d="M25.544,35.6 L31.544,35.6 L31.544,36.872 L26.96,36.872 L26.96,39.152 L31.064,39.152 L31.064,40.412 L26.96,40.412 L26.96,42.728 L31.688,42.728 L31.688,44 L25.544,44 L25.544,35.6 Z M41.552,43.928 L42.116,44.924 C41.468,45.5 40.616,45.848 39.836,45.848 C38.78,45.848 37.832,45.188 37.16,44.06 C34.652,44.048 32.72,42.2 32.72,39.8 C32.72,37.388 34.664,35.564 37.172,35.564 C39.68,35.564 41.624,37.4 41.624,39.8 C41.624,41.72 40.388,43.292 38.6,43.844 C39.056,44.336 39.524,44.624 40.004,44.624 C40.448,44.624 41,44.36 41.552,43.928 Z M34.16,39.8 C34.16,41.468 35.54,42.788 37.184,42.788 C38.828,42.788 40.172,41.468 40.172,39.8 C40.172,38.132 38.828,36.836 37.184,36.836 C35.528,36.836 34.16,38.132 34.16,39.8 Z M44.48,40.52 C44.48,41.936 45.356,42.788 46.736,42.788 C48.104,42.788 48.956,41.948 48.956,40.52 L48.956,35.6 L50.372,35.6 L50.372,40.52 C50.372,42.716 48.992,44.06 46.724,44.06 C44.456,44.06 43.064,42.716 43.064,40.52 L43.064,35.6 L44.48,35.6 L44.48,40.52 Z M58.628,44 L57.824,42.104 L53.588,42.104 L52.784,44 L51.308,44 L55.016,35.6 L56.468,35.6 L60.14,44 L58.628,44 Z M54.116,40.844 L57.284,40.844 L55.7,37.112 L54.116,40.844 Z M61.256,35.6 L62.672,35.6 L62.672,42.716 L66.308,42.716 L66.308,44 L61.256,44 L61.256,35.6 Z" id="EQUAL" fill="#252E3B"></path>
            <path d="M25.733028,48.9920934 L29.160028,48.9920934 C30.2640335,48.9920934 31.1265248,49.2297577 31.747528,49.7050934 C32.3685311,50.1804291 32.679028,50.8819221 32.679028,51.8095934 C32.679028,52.7372647 32.3704477,53.4234245 31.753278,53.8680934 C31.1361082,54.3127623 30.2717002,54.5350934 29.160028,54.5350934 L28.412528,54.5350934 L28.412528,56.7315934 C28.412528,56.8159272 28.3818616,56.8887598 28.320528,56.9500934 C28.2591943,57.011427 28.1863617,57.0420934 28.102028,57.0420934 L25.733028,57.0420934 C25.6486942,57.0420934 25.5758616,57.011427 25.514528,56.9500934 C25.4531943,56.8887598 25.422528,56.8159272 25.422528,56.7315934 L25.422528,49.3025934 C25.422528,49.2182596 25.4531943,49.145427 25.514528,49.0840934 C25.5758616,49.0227598 25.6486942,48.9920934 25.733028,48.9920934 Z M28.355028,51.1310934 L28.355028,52.4075934 L29.160028,52.4075934 C29.2980286,52.4075934 29.4206941,52.3558439 29.528028,52.2523434 C29.6353618,52.1488429 29.689028,52.001261 29.689028,51.8095934 C29.689028,51.6179258 29.6468617,51.4569274 29.562528,51.3265934 C29.4781942,51.1962594 29.3440289,51.1310934 29.160028,51.1310934 L28.355028,51.1310934 Z M36.290028,48.9920934 L38.785528,48.9920934 C39.0615293,48.9920934 39.2340276,49.1185921 39.303028,49.3715934 L41.867528,56.7085934 C41.8751947,56.7315935 41.879028,56.7680098 41.879028,56.8178434 C41.879028,56.867677 41.8541115,56.9175098 41.804278,56.9673434 C41.7544444,57.017177 41.6950283,57.0420934 41.626028,57.0420934 L39.498528,57.0420934 C39.2685268,57.0420934 39.1190283,56.946261 39.050028,56.7545934 L38.774028,55.9955934 L36.301528,55.9955934 L36.025528,56.7545934 C35.9565276,56.946261 35.8070291,57.0420934 35.577028,57.0420934 L33.449528,57.0420934 C33.3805276,57.0420934 33.3211115,57.017177 33.271278,56.9673434 C33.2214444,56.9175098 33.196528,56.867677 33.196528,56.8178434 C33.196528,56.7680098 33.2003612,56.7315935 33.208028,56.7085934 L35.772528,49.3715934 C35.8415283,49.1185921 36.0140266,48.9920934 36.290028,48.9920934 Z M36.888028,53.7530934 L38.187528,53.7530934 L37.532028,51.6140934 L36.888028,53.7530934 Z M50.205028,56.6625934 C50.2280281,56.7085936 50.239528,56.7584265 50.239528,56.8120934 C50.239528,56.8657603 50.2146115,56.9175098 50.164778,56.9673434 C50.1149444,57.017177 50.0555283,57.0420934 49.986528,57.0420934 L47.629028,57.0420934 C47.3913601,57.0420934 47.2265284,56.9385944 47.134528,56.7315934 L46.145528,54.5350934 L45.674028,54.5350934 L45.674028,56.7315934 C45.674028,56.8159272 45.6433616,56.8887598 45.582028,56.9500934 C45.5206943,57.011427 45.4478617,57.0420934 45.363528,57.0420934 L43.109528,57.0420934 C43.0251942,57.0420934 42.9523616,57.011427 42.891028,56.9500934 C42.8296943,56.8887598 42.799028,56.8159272 42.799028,56.7315934 L42.799028,49.3025934 C42.799028,49.2182596 42.8296943,49.145427 42.891028,49.0840934 C42.9523616,49.0227598 43.0251942,48.9920934 43.109528,48.9920934 L46.513528,48.9920934 C47.6175335,48.9920934 48.4800248,49.2393409 49.101028,49.7338434 C49.7220311,50.2283459 50.032528,50.9375055 50.032528,51.8613434 C50.032528,52.7851814 49.6185321,53.5115908 48.790528,54.0405934 L50.205028,56.6625934 Z M45.674028,51.1310934 L45.674028,52.3500934 L46.513528,52.3500934 C46.6821955,52.3500934 46.8125275,52.2945106 46.904528,52.1833434 C46.9965284,52.0721762 47.042528,51.9322609 47.042528,51.7635934 C47.042528,51.5949259 46.9984451,51.447344 46.910278,51.3208434 C46.8221108,51.1943428 46.6898622,51.1310934 46.513528,51.1310934 L45.674028,51.1310934 Z M51.240028,48.9920934 L57.979028,48.9920934 C58.0633617,48.9920934 58.1361943,49.0227598 58.197528,49.0840934 C58.2588616,49.145427 58.289528,49.2182596 58.289528,49.3025934 L58.289528,51.1540934 C58.289528,51.2384272 58.2588616,51.3112598 58.197528,51.3725934 C58.1361943,51.433927 58.0633617,51.4645934 57.979028,51.4645934 L56.070028,51.4645934 L56.070028,56.7315934 C56.070028,56.8159272 56.0393616,56.8887598 55.978028,56.9500934 C55.9166943,57.011427 55.8438617,57.0420934 55.759528,57.0420934 L53.459528,57.0420934 C53.3751942,57.0420934 53.3023616,57.011427 53.241028,56.9500934 C53.1796943,56.8887598 53.149028,56.8159272 53.149028,56.7315934 L53.149028,51.4645934 L51.240028,51.4645934 C51.1556942,51.4645934 51.0828616,51.433927 51.021528,51.3725934 C50.9601943,51.3112598 50.929528,51.2384272 50.929528,51.1540934 L50.929528,49.3025934 C50.929528,49.2182596 50.9601943,49.145427 51.021528,49.0840934 C51.0828616,49.0227598 51.1556942,48.9920934 51.240028,48.9920934 Z M59.175028,51.5220934 C59.175028,50.7400895 59.4989414,50.1037625 60.146778,49.6130934 C60.7946145,49.1224243 61.645606,48.8770934 62.699778,48.8770934 C63.7539499,48.8770934 64.6164413,49.1339242 65.287278,49.6475934 C65.9581146,50.1612626 66.293528,50.6979239 66.293528,51.2575934 C66.293528,51.3265937 66.2686115,51.3860098 66.218778,51.4358434 C66.1689444,51.485677 66.1133616,51.5105934 66.052028,51.5105934 L63.752028,51.5105934 C63.5756937,51.5105934 63.4146953,51.4454274 63.269028,51.3150934 C63.1233606,51.1847594 62.9278625,51.1195934 62.682528,51.1195934 C62.3145261,51.1195934 62.130528,51.2269257 62.130528,51.4415934 C62.130528,51.556594 62.2206104,51.6524264 62.400778,51.7290934 C62.5809455,51.8057605 62.9163588,51.8747598 63.407028,51.9360934 C64.549367,52.0817608 65.3639422,52.3481748 65.850778,52.7353434 C66.3376137,53.122512 66.581028,53.7090061 66.581028,54.4948434 C66.581028,55.2806807 66.2226149,55.9208409 65.505778,56.4153434 C64.788941,56.9098459 63.8517004,57.1570934 62.694028,57.1570934 C61.5363555,57.1570934 60.6278646,56.9194291 59.968528,56.4440934 C59.3091913,55.9687577 58.979528,55.3899301 58.979528,54.7075934 C58.979528,54.6385931 59.0044444,54.579177 59.054278,54.5293434 C59.1041115,54.4795098 59.1635276,54.4545934 59.232528,54.4545934 L61.417528,54.4545934 C61.5785288,54.4545934 61.756777,54.5312593 61.952278,54.6845934 C62.1477789,54.8379275 62.4180262,54.9145934 62.763028,54.9145934 C63.3380308,54.9145934 63.625528,54.8072611 63.625528,54.5925934 C63.625528,54.4545927 63.522029,54.3491771 63.315028,54.2763434 C63.1080269,54.2035097 62.7170308,54.1287605 62.142028,54.0520934 C60.1640181,53.7914254 59.175028,52.9481005 59.175028,51.5220934 Z" id="PARTS" fill="#252E3B"></path>
        </g>
    </g>
</svg>