<?xml version="1.0" encoding="UTF-8"?>
<svg width="92px" height="92px" viewBox="0 0 92 92" version="1.1" xmlns="http://www.w3.org/2000/svg" xmlns:xlink="http://www.w3.org/1999/xlink" style="background: #FFFFFF;">
    <!-- Generator: Sketch 49.1 (51147) - http://www.bohemiancoding.com/sketch -->
    <title>Artboard</title>
    <desc>Created with Sketch.</desc>
    <defs></defs>
    <g id="Artboard" stroke="none" stroke-width="1" fill="none" fill-rule="evenodd">
        <g id="Animation21">
            <g id="21">
                <rect id="Rectangle-25-Copy-15" x="3.18323146e-12" y="0" width="92" height="92"></rect>
            </g>
            <path d="M28.952,51 L28.952,40.12 L35.896,40.12 L35.896,42.04 L31.16,42.04 L31.16,45.24 L35.032,45.24 L35.032,47.16 L31.16,47.16 L31.16,51 L28.952,51 Z M36.4,51 L38.848,40.12 L43.04,40.12 L45.488,51 L43.28,51 L42.848,49.032 L39.04,49.032 L38.608,51 L36.4,51 Z M40.56,41.944 L39.456,47.112 L42.432,47.112 L41.328,41.944 L40.56,41.944 Z M50.808,51 L47.144,51 L47.144,40.12 L50.808,40.12 C54.6,40.12 55.432,41.736 55.432,45.352 C55.432,49.064 54.712,51 50.808,51 Z M53.16,45.352 C53.16,42.968 52.952,42.04 50.808,42.04 L49.352,42.04 L49.352,49.08 L50.808,49.08 C52.952,49.08 53.16,47.768 53.16,45.352 Z M57.552,51 L57.552,40.12 L64.592,40.12 L64.592,42.04 L59.76,42.04 L59.76,44.584 L63.632,44.584 L63.632,46.472 L59.76,46.472 L59.76,49.08 L64.592,49.08 L64.592,51 L57.552,51 Z" id="FADE" fill="#252E3B"></path>
        </g>
    </g>
</svg>