<?xml version="1.0" encoding="UTF-8"?>
<svg width="92px" height="92px" viewBox="0 0 92 92" version="1.1" xmlns="http://www.w3.org/2000/svg" xmlns:xlink="http://www.w3.org/1999/xlink" style="background: #FFFFFF;">
    <!-- Generator: Sketch 48.1 (47250) - http://www.bohemiancoding.com/sketch -->
    <title>Artboard</title>
    <desc>Created with Sketch.</desc>
    <defs>
        <polygon id="path-1" points="0 0.363982803 8.2145 0.363982803 8.2145 13 0 13"></polygon>
        <polygon id="path-3" points="0.9352 0.104 9.511 0.104 9.511 13.655 0.9352 13.655"></polygon>
    </defs>
    <g id="New-Editor" stroke="none" stroke-width="1" fill="none" fill-rule="evenodd">
        <g id="Artboard">
            <g id="Animation08">
                <rect id="Rectangle-25-Copy-6" fill="#FFFFFF" x="0" y="0" width="92" height="92"></rect>
                <g id="Group-2" transform="translate(7.000000, 23.500000)">
                    <polygon id="Rectangle-14" fill="#FFDA3B" transform="translate(39.270847, 22.482336) rotate(-15.000000) translate(-39.270847, -22.482336) " points="7.84232568 10.1569693 76.4654359 12.1889162 70.3875179 34.8077033 2.0762586 32.7632682"></polygon>
                    <g id="RIbbon-final" transform="translate(13.000000, 10.000000)">
                        <g id="Group-3" transform="translate(0.000000, 11.896000)">
                            <mask id="mask-2" fill="white">
                                <use xlink:href="#path-1"></use>
                            </mask>
                            <g id="Clip-2"></g>
                            <path d="M2.4785,6.263 L3.8835,5.933 C4.3775,5.816 4.7485,5.575 4.9945,5.206 C5.2405,4.84 5.3635,4.398 5.3635,3.88 C5.3625,2.724 4.8825,2.258 3.9225,2.484 L2.4755,2.825 L2.4785,6.263 Z M3.7085,7.914 L2.4795,8.203 L2.4835,12.417 L0.0095,13 L-0.0005,1.467 L3.9465,0.537 C5.1865,0.245 6.1445,0.323 6.8205,0.768 C7.4985,1.213 7.8365,1.993 7.8375,3.108 C7.8385,4.639 7.2485,5.85 6.0645,6.742 L8.2145,10.957 L8.2145,11.068 L5.5555,11.694 L3.7085,7.914 Z" id="Fill-1" fill="#252E3B" mask="url(#mask-2)"></path>
                        </g>
                        <polygon id="Fill-4" fill="#252E3B" points="12.1274 22.0428 9.6534 22.6248 9.6434 11.0928 12.1174 10.5098"></polygon>
                        <path d="M16.6757,15.9569 L16.6777,19.0379 L18.2597,18.6649 C18.7037,18.5609 19.0397,18.3529 19.2697,18.0399 C19.4997,17.7269 19.6137,17.3319 19.6137,16.8569 C19.6127,15.8219 19.2147,15.3849 18.4177,15.5469 L16.6757,15.9569 Z M16.6747,14.2609 L17.9617,13.9579 C18.9317,13.7289 19.4167,13.1439 19.4167,12.1979 C19.4157,11.6749 19.3037,11.3259 19.0787,11.1519 C18.8537,10.9779 18.4897,10.9499 17.9847,11.0679 L16.6717,11.3779 L16.6747,14.2609 Z M14.2057,21.5539 L14.1967,10.0199 L17.9827,9.1289 C19.2617,8.8269 20.2337,8.8669 20.8997,9.2459 C21.5647,9.6259 21.8977,10.3319 21.8987,11.3679 C21.8987,11.9529 21.7617,12.4899 21.4877,12.9779 C21.2127,13.4649 20.8377,13.8619 20.3607,14.1709 C20.9107,14.1879 21.3347,14.3859 21.6327,14.7619 C21.9297,15.1389 22.0787,15.6539 22.0797,16.3089 C22.0807,17.4289 21.7547,18.3499 21.1007,19.0739 C20.4477,19.7979 19.5017,20.3069 18.2617,20.5979 L14.2057,21.5539 Z" id="Fill-6" fill="#252E3B"></path>
                        <path d="M26.3447,13.6805 L26.3467,16.7605 L27.9287,16.3885 C28.3727,16.2845 28.7087,16.0765 28.9387,15.7635 C29.1687,15.4495 29.2827,15.0555 29.2827,14.5795 C29.2817,13.5455 28.8837,13.1085 28.0867,13.2705 L26.3447,13.6805 Z M26.3437,11.9845 L27.6307,11.6805 C28.6007,11.4515 29.0857,10.8665 29.0857,9.9205 C29.0847,9.3985 28.9727,9.0485 28.7477,8.8745 C28.5227,8.7015 28.1577,8.6725 27.6537,8.7915 L26.3407,9.1005 L26.3437,11.9845 Z M23.8747,19.2765 L23.8657,7.7435 L27.6517,6.8515 C28.9307,6.5505 29.9027,6.5895 30.5687,6.9695 C31.2337,7.3495 31.5667,8.0555 31.5677,9.0915 C31.5677,9.6765 31.4307,10.2125 31.1567,10.7015 C30.8817,11.1885 30.5067,11.5845 30.0297,11.8935 C30.5787,11.9115 31.0037,12.1095 31.3007,12.4855 C31.5987,12.8615 31.7477,13.3765 31.7487,14.0315 C31.7497,15.1515 31.4237,16.0735 30.7697,16.7965 C30.1167,17.5215 29.1707,18.0295 27.9307,18.3215 L23.8747,19.2765 Z" id="Fill-8" fill="#252E3B"></path>
                        <path d="M39.6811,8.8924 C39.6801,7.8514 39.5221,7.1144 39.2081,6.6814 C38.8931,6.2484 38.4051,6.1104 37.7431,6.2654 C37.0861,6.4204 36.6011,6.7784 36.2871,7.3404 C35.9741,7.9044 35.8111,8.6854 35.8021,9.6864 L35.8031,11.7384 C35.8041,12.7464 35.9651,13.4524 36.2851,13.8544 C36.6051,14.2564 37.0991,14.3804 37.7661,14.2234 C38.4111,14.0714 38.8911,13.7244 39.2051,13.1824 C39.5181,12.6414 39.6781,11.8784 39.6821,10.8954 L39.6811,8.8924 Z M42.1651,10.2404 C42.1661,11.7874 41.7791,13.0794 41.0031,14.1184 C40.2261,15.1564 39.1481,15.8374 37.7681,16.1634 C36.3941,16.4874 35.3131,16.3174 34.5271,15.6554 C33.7411,14.9924 33.3421,13.8984 33.3291,12.3754 L33.3271,10.4034 C33.3261,8.8184 33.7151,7.4904 34.4941,6.4164 C35.2731,5.3434 36.3551,4.6434 37.7411,4.3174 C39.1041,3.9964 40.1801,4.1804 40.9651,4.8704 C41.7511,5.5584 42.1511,6.6904 42.1631,8.2674 L42.1651,10.2404 Z" id="Fill-10" fill="#252E3B"></path>
                        <g id="Group-14" transform="translate(43.000000, 0.896000)">
                            <mask id="mask-4" fill="white">
                                <use xlink:href="#path-3"></use>
                            </mask>
                            <g id="Clip-13"></g>
                            <polygon id="Fill-12" fill="#252E3B" mask="url(#mask-4)" points="9.5112 11.637 7.0372 12.219 3.4122 5.506 3.4182 13.072 0.9452 13.655 0.9352 2.121 3.4092 1.538 7.0422 8.257 7.0352 0.685 9.5012 0.104"></polygon>
                        </g>
                    </g>
                </g>
            </g>
        </g>
    </g>
</svg>