<?xml version="1.0" encoding="UTF-8"?>
<svg width="92px" height="92px" viewBox="0 0 92 92" version="1.1" xmlns="http://www.w3.org/2000/svg" xmlns:xlink="http://www.w3.org/1999/xlink" style="background: #FFFFFF;">
    <!-- Generator: Sketch 48.1 (47250) - http://www.bohemiancoding.com/sketch -->
    <title>Artboard</title>
    <desc>Created with Sketch.</desc>
    <defs></defs>
    <g id="New-Editor" stroke="none" stroke-width="1" fill="none" fill-rule="evenodd">
        <g id="Artboard">
            <g id="Animation03">
                <rect id="Rectangle-25-Copy-7" fill="#FFFFFF" x="3.18323146e-12" y="0" width="92" height="92"></rect>
                <g id="Group-13" transform="translate(13.000000, 30.000000)">
                    <path d="M4.55705371,24.9263617 L6.14753817,24.9263617 L7.14941814,27.8693841 L8.15129812,24.9263617 L9.75430608,24.9263617 L8.23896262,28.9714521 L9.36607759,31.8142865 L11.883301,24.9013147 L13.761826,24.9013147 L10.1425346,33.7929994 L8.68980861,33.7929994 L7.14941814,30.0609965 L5.60902768,33.7929994 L4.15630172,33.7929994 L0.562057313,24.9013147 L2.41553527,24.9013147 L4.9452822,31.8142865 L6.04735017,28.9714521 L4.55705371,24.9263617 Z M15.2452914,33.7929994 L15.2452914,24.9013147 L19.1776703,24.9013147 C19.5867734,24.9013147 19.9645618,24.986891 20.3110471,25.1580464 C20.6575323,25.3292018 20.956006,25.5546225 21.2064773,25.8343154 C21.4569485,26.1140083 21.6531481,26.4312671 21.7950818,26.7861014 C21.9370155,27.1409356 22.0079813,27.4978518 22.0079813,27.8568606 C22.0079813,28.4329444 21.8639625,28.9568389 21.5759205,29.4285598 C21.2878786,29.9002806 20.8975668,30.240499 20.4049733,30.449225 L22.4337803,33.7929994 L20.4926378,33.7929994 L18.6767304,30.8124065 L16.9735344,30.8124065 L16.9735344,33.7929994 L15.2452914,33.7929994 Z M16.9735344,29.297063 L19.1400998,29.297063 C19.2987316,29.297063 19.4469249,29.2594929 19.5846841,29.1843515 C19.7224433,29.1092102 19.8414153,29.0069359 19.9416038,28.8775258 C20.0417923,28.7481157 20.121107,28.5957479 20.1795503,28.4204181 C20.2379936,28.2450882 20.2672148,28.0572376 20.2672148,27.8568606 C20.2672148,27.6481345 20.2338192,27.4561095 20.1670268,27.2807796 C20.1002345,27.1054497 20.0104836,26.953082 19.8977716,26.8236719 C19.7850595,26.6942617 19.6556513,26.5940747 19.5095431,26.5231079 C19.3634349,26.452141 19.2152416,26.4166581 19.0649588,26.4166581 L16.9735344,26.4166581 L16.9735344,29.297063 Z M26.5346572,24.9013147 L28.0625241,24.9013147 L31.443869,33.7929994 L29.6655321,33.7929994 L28.8389811,31.57634 L25.7331532,31.57634 L24.9191257,33.7929994 L23.1407888,33.7929994 L26.5346572,24.9013147 Z M28.5258936,30.3615605 L27.2985906,26.8675041 L26.0211937,30.3615605 L28.5258936,30.3615605 Z M32.989952,33.7929994 L32.989952,24.9013147 L36.7595254,24.9013147 C37.1686284,24.9013147 37.5464169,24.986891 37.8929021,25.1580464 C38.2393874,25.3292018 38.5378611,25.5546225 38.7883324,25.8343154 C39.0388036,26.1140083 39.2350031,26.4312671 39.3769368,26.7861014 C39.5188706,27.1409356 39.5898363,27.4978518 39.5898363,27.8568606 C39.5898363,28.2325674 39.523045,28.5978325 39.3894603,28.9526668 C39.2558757,29.3075011 39.0680251,29.6226727 38.8259029,29.898191 C38.5837807,30.1737094 38.2915686,30.3949557 37.9492579,30.5619365 C37.6069472,30.7289173 37.2312459,30.8124065 36.8221429,30.8124065 L34.718195,30.8124065 L34.718195,33.7929994 L32.989952,33.7929994 Z M34.718195,29.297063 L36.7219549,29.297063 C37.0392185,29.297063 37.3042966,29.1676548 37.5171971,28.9088346 C37.7300977,28.6500143 37.8365464,28.2993598 37.8365464,27.8568606 C37.8365464,27.6314365 37.8031507,27.4289752 37.7363584,27.2494708 C37.6695661,27.0699665 37.5819024,26.9175987 37.4733649,26.7923631 C37.3648274,26.6671275 37.2375064,26.5732022 37.0913982,26.5105844 C36.9452899,26.4479666 36.7970967,26.4166581 36.6468139,26.4166581 L34.718195,26.4166581 L34.718195,29.297063 Z M41.3613423,33.7929994 L41.3613423,24.9013147 L45.1309157,24.9013147 C45.5400187,24.9013147 45.9178072,24.986891 46.2642924,25.1580464 C46.6107777,25.3292018 46.9092514,25.5546225 47.1597227,25.8343154 C47.4101939,26.1140083 47.6063934,26.4312671 47.7483271,26.7861014 C47.8902608,27.1409356 47.9612266,27.4978518 47.9612266,27.8568606 C47.9612266,28.2325674 47.8944353,28.5978325 47.7608506,28.9526668 C47.627266,29.3075011 47.4394154,29.6226727 47.1972932,29.898191 C46.9551709,30.1737094 46.6629589,30.3949557 46.3206482,30.5619365 C45.9783375,30.7289173 45.6026362,30.8124065 45.1935332,30.8124065 L43.0895853,30.8124065 L43.0895853,33.7929994 L41.3613423,33.7929994 Z M43.0895853,29.297063 L45.0933452,29.297063 C45.4106088,29.297063 45.6756869,29.1676548 45.8885874,28.9088346 C46.101488,28.6500143 46.2079367,28.2993598 46.2079367,27.8568606 C46.2079367,27.6314365 46.174541,27.4289752 46.1077487,27.2494708 C46.0409563,27.0699665 45.9532927,26.9175987 45.8447552,26.7923631 C45.7362176,26.6671275 45.6088967,26.5732022 45.4627884,26.5105844 C45.3166802,26.4479666 45.168487,26.4166581 45.0182042,26.4166581 L43.0895853,26.4166581 L43.0895853,29.297063 Z M55.9068179,32.277656 L55.9068179,33.7929994 L49.7327326,33.7929994 L49.7327326,24.9013147 L55.7941064,24.9013147 L55.7941064,26.4166581 L51.4609756,26.4166581 L51.4609756,28.5581766 L55.205502,28.5581766 L55.205502,29.9608085 L51.4609756,29.9608085 L51.4609756,32.277656 L55.9068179,32.277656 Z M57.8286059,33.7929994 L57.8286059,24.9013147 L61.0596688,24.9013147 C61.7860354,24.9013147 62.4226403,25.0181995 62.9695025,25.2519726 C63.5163647,25.4857458 63.9734679,25.8030046 64.3408257,26.2037586 C64.7081836,26.6045126 64.9836978,27.0741392 65.1673767,27.6126523 C65.3510556,28.1511655 65.4428937,28.7251535 65.4428937,29.3346335 C65.4428937,30.0109059 65.3406195,30.622464 65.136068,31.1693262 C64.9315164,31.7161885 64.6372171,32.1837278 64.2531612,32.5719582 C63.8691053,32.9601886 63.4078277,33.2607496 62.8693145,33.4736502 C62.3308013,33.6865507 61.7275921,33.7929994 61.0596688,33.7929994 L57.8286059,33.7929994 Z M63.7021272,29.3346335 C63.7021272,28.9088324 63.6436848,28.5164334 63.5267983,28.1574246 C63.4099117,27.7984158 63.2387589,27.4895059 63.0133348,27.2306856 C62.7879106,26.9718653 62.5103092,26.7714913 62.180522,26.6295576 C61.8507349,26.4876239 61.4771209,26.4166581 61.0596688,26.4166581 L59.5568489,26.4166581 L59.5568489,32.277656 L61.0596688,32.277656 C61.4854699,32.277656 61.8632584,32.2025157 62.1930455,32.052233 C62.5228327,31.9019502 62.7983469,31.6953145 63.0195965,31.4323197 C63.2408461,31.1693249 63.4099117,30.8583278 63.5267983,30.499319 C63.6436848,30.1403102 63.7021272,29.7520856 63.7021272,29.3346335 Z" id="WRAPPED" fill="#FFDA3B"></path>
                    <path d="M24.2999277,16.8521199 C23.5902591,17.5617884 22.7637164,17.9166173 21.8202747,17.9166173 C21.2358418,17.9166173 20.6869006,17.7997325 20.1734345,17.5659593 C19.6599685,17.3321862 19.2133015,17.0107529 18.8334201,16.6016499 C18.4535387,16.1925468 18.1529777,15.7103969 17.9317281,15.1551857 C17.7104785,14.5999744 17.5998553,14.0009396 17.5998553,13.3580635 C17.5998553,12.7485834 17.7104785,12.1745954 17.9317281,11.6360822 C18.1529777,11.0975691 18.4577131,10.6258553 18.8459436,10.2209268 C19.234174,9.81599827 19.6912772,9.49456499 20.2172668,9.25661731 C20.7432564,9.01866962 21.3151572,8.89969756 21.9329862,8.89969756 C22.7678904,8.89969756 23.48381,9.07502481 24.0807664,9.42568455 C24.6777229,9.7763443 25.1264771,10.2480581 25.4270426,10.84084 L24.1371222,11.792626 C23.9116981,11.3501268 23.5965265,11.0119957 23.1915979,10.7782225 C22.7866694,10.5444494 22.3462641,10.4275645 21.8703687,10.4275645 C21.4946619,10.4275645 21.1502691,10.5068792 20.83718,10.665511 C20.524091,10.8241428 20.2569256,11.0412146 20.035676,11.316733 C19.8144264,11.5922514 19.6432736,11.9095102 19.5222125,12.268519 C19.4011514,12.6275278 19.3406218,13.0074035 19.3406218,13.4081574 C19.3406218,13.8256095 19.4074131,14.2159214 19.5409978,14.5791047 C19.6745825,14.942288 19.8582586,15.2574596 20.0920318,15.5246289 C20.3258049,15.7917982 20.6034064,16.0026084 20.9248445,16.1570656 C21.2462826,16.3115229 21.5948499,16.3887504 21.9705567,16.3887504 C22.830508,16.3887504 23.6069572,15.9838279 24.2999277,15.1739709 L24.2999277,14.5477959 L22.5090672,14.5477959 L22.5090672,13.2829225 L25.7276066,13.2829225 L25.7276066,17.8539998 L24.2999277,17.8539998 L24.2999277,16.8521199 Z M28.2053796,17.8539998 L28.2053796,8.96231506 L29.9336226,8.96231506 L29.9336226,17.8539998 L28.2053796,17.8539998 Z M32.7871005,17.8539998 L32.7871005,8.96231506 L38.7608099,8.96231506 L38.7608099,10.4776585 L34.5153435,10.4776585 L34.5153435,12.769459 L38.0469704,12.769459 L38.0469704,14.1720909 L34.5153435,14.1720909 L34.5153435,17.8539998 L32.7871005,17.8539998 Z M47.6255677,10.4776585 L44.7827332,10.4776585 L44.7827332,17.8539998 L43.0670138,17.8539998 L43.0670138,10.4776585 L40.2241793,10.4776585 L40.2241793,8.96231506 L47.6255677,8.96231506 L47.6255677,10.4776585 Z" id="GIFT" fill="#252E3B"></path>
                    <rect id="Rectangle-28-Copy" fill="#FFDA3B" transform="translate(33.000000, 1.000000) rotate(-90.000000) translate(-33.000000, -1.000000) " x="32" y="-7" width="2" height="16"></rect>
                </g>
            </g>
        </g>
    </g>
</svg>