<?xml version="1.0" encoding="UTF-8"?>
<svg width="92px" height="92px" viewBox="0 0 92 92" version="1.1" xmlns="http://www.w3.org/2000/svg" xmlns:xlink="http://www.w3.org/1999/xlink" style="background: #FFFFFF;">
    <!-- Generator: Sketch 49 (51002) - http://www.bohemiancoding.com/sketch -->
    <title>Artboard</title>
    <desc>Created with Sketch.</desc>
    <defs></defs>
    <g id="Artboard" stroke="none" stroke-width="1" fill="none" fill-rule="evenodd">
        <g id="20">
            <rect id="Rectangle-25-Copy-15" x="0" y="0" width="92" height="92"></rect>
            <rect id="Rectangle-28-Copy-2" fill="#FFDA3B" transform="translate(46.000000, 54.500000) rotate(90.000000) translate(-46.000000, -54.500000) " x="33" y="36" width="26" height="37"></rect>
            <path d="M34.1844885,27.2630101 C34.4924901,27.188343 34.83082,27.1346769 35.1994885,27.1020101 C35.5681571,27.0693432 35.906487,27.0530101 36.2144885,27.0530101 C36.5784904,27.0530101 36.9238202,27.097343 37.2504885,27.1860101 C37.5771568,27.2746772 37.8618207,27.424009 38.1044885,27.6340101 C38.3471564,27.8440111 38.5408212,28.1193417 38.6854885,28.4600101 C38.8301559,28.8006784 38.9024885,29.2276742 38.9024885,29.7410101 C38.9024885,30.5156806 38.7414902,31.1363411 38.4194885,31.6030101 C38.0974869,32.0696791 37.6704912,32.3823426 37.1384885,32.5410101 L37.6704885,33.0590101 L39.6024885,36.9650101 L38.3844885,36.9650101 L36.2844885,32.6950101 L35.2344885,32.4850101 L35.2344885,36.9650101 L34.1844885,36.9650101 L34.1844885,27.2630101 Z M35.2344885,31.7850101 L36.0744885,31.7850101 C36.6064912,31.7850101 37.026487,31.6216784 37.3344885,31.2950101 C37.6424901,30.9683418 37.7964885,30.4690134 37.7964885,29.7970101 C37.7964885,29.2836742 37.6681565,28.8590118 37.4114885,28.5230101 C37.1548206,28.1870084 36.7744911,28.0190101 36.2704885,28.0190101 C36.0838209,28.0190101 35.8901562,28.02601 35.6894885,28.0400101 C35.4888209,28.0540101 35.3371557,28.0750099 35.2344885,28.1030101 L35.2344885,31.7850101 Z M40.6104885,32.0650101 C40.6104885,30.4036684 40.8764859,29.143681 41.4084885,28.2850101 C41.9404912,27.4263391 42.7524831,26.9970101 43.8444885,26.9970101 C44.4324915,26.9970101 44.9318198,27.1160089 45.3424885,27.3540101 C45.7531573,27.5920113 46.0868206,27.9303412 46.3434885,28.3690101 C46.6001565,28.8076789 46.7891546,29.3396736 46.9104885,29.9650101 C47.0318225,30.5903465 47.0924885,31.2903395 47.0924885,32.0650101 C47.0924885,33.7263517 46.8241579,34.9863391 46.2874885,35.8450101 C45.7508192,36.703681 44.936494,37.1330101 43.8444885,37.1330101 C43.265819,37.1330101 42.7711573,37.0140113 42.3604885,36.7760101 C41.9498198,36.5380089 41.6138232,36.1996789 41.3524885,35.7610101 C41.0911539,35.3223412 40.9021558,34.7903465 40.7854885,34.1650101 C40.6688213,33.5396736 40.6104885,32.8396806 40.6104885,32.0650101 Z M41.7164885,32.0650101 C41.7164885,32.6156795 41.7561548,33.1383409 41.8354885,33.6330101 C41.9148223,34.1276792 42.0384877,34.5616749 42.2064885,34.9350101 C42.3744894,35.3083453 42.5938205,35.607009 42.8644885,35.8310101 C43.1351566,36.0550112 43.46182,36.1670101 43.8444885,36.1670101 C44.544492,36.1670101 45.0764867,35.8310134 45.4404885,35.1590101 C45.8044904,34.4870067 45.9864885,33.4556837 45.9864885,32.0650101 C45.9864885,31.523674 45.9468223,31.0056792 45.8674885,30.5110101 C45.7881548,30.0163409 45.6644894,29.580012 45.4964885,29.2020101 C45.3284877,28.8240082 45.1091566,28.5230112 44.8384885,28.2990101 C44.5678205,28.075009 44.2364905,27.9630101 43.8444885,27.9630101 C43.1538184,27.9630101 42.6264904,28.2990067 42.2624885,28.9710101 C41.8984867,29.6430134 41.7164885,30.6743365 41.7164885,32.0650101 Z M53.3084885,36.9650101 L48.5904885,36.9650101 L48.5904885,27.1650101 L49.6404885,27.1650101 L49.6404885,35.9990101 L53.3084885,35.9990101 L53.3084885,36.9650101 Z M59.1184885,36.9650101 L54.4004885,36.9650101 L54.4004885,27.1650101 L55.4504885,27.1650101 L55.4504885,35.9990101 L59.1184885,35.9990101 L59.1184885,36.9650101 Z" id="Roll" stroke="#252E3B" stroke-width="0.6" fill="#252E3B"></path>
            <path d="M33.6352549,54.7061979 C33.6352549,52.8075217 33.9605849,51.3622028 34.6112549,50.3701979 C35.2619248,49.3781929 36.2539149,48.8821979 37.5872549,48.8821979 C38.2805917,48.8821979 38.877919,49.0181965 39.3792549,49.2901979 C39.8805907,49.5621992 40.2912533,49.9515287 40.6112549,50.4581979 C40.9312565,50.9648671 41.1685874,51.5781943 41.3232549,52.2981979 C41.4779223,53.0182015 41.5552549,53.8208601 41.5552549,54.7061979 C41.5552549,56.604874 41.2219249,58.0501929 40.5552549,59.0421979 C39.8885849,60.0342028 38.8992614,60.5301979 37.5872549,60.5301979 C36.8832513,60.5301979 36.2832573,60.3941992 35.7872549,60.1221979 C35.2912524,59.8501965 34.8832565,59.4608671 34.5632549,58.9541979 C34.2432533,58.4475287 34.0085889,57.8342015 33.8592549,57.1141979 C33.7099208,56.3941943 33.6352549,55.5915356 33.6352549,54.7061979 Z M35.7472549,54.7061979 C35.7472549,55.271534 35.7792545,55.7968621 35.8432549,56.2821979 C35.9072552,56.7675336 36.0139208,57.1861961 36.1632549,57.5381979 C36.3125889,57.8901996 36.5019204,58.1675302 36.7312549,58.3701979 C36.9605893,58.5728655 37.2459198,58.6741979 37.5872549,58.6741979 C38.2059246,58.6741979 38.66992,58.3595343 38.9792549,57.7301979 C39.2885897,57.1008614 39.4432549,56.0928715 39.4432549,54.7061979 C39.4432549,54.1621951 39.4112552,53.6475336 39.3472549,53.1621979 C39.2832545,52.6768621 39.1792556,52.255533 39.0352549,51.8981979 C38.8912541,51.5408627 38.7019227,51.2581989 38.4672549,51.0501979 C38.232587,50.8421968 37.9392566,50.7381979 37.5872549,50.7381979 C36.3605821,50.7381979 35.7472549,52.0608513 35.7472549,54.7061979 Z M48.0832549,49.1061979 L49.9872549,49.1061979 L49.9872549,56.3701979 C49.9872549,57.8208718 49.6912578,58.8715279 49.0992549,59.5221979 C48.5072519,60.1728678 47.6885934,60.4981979 46.6432549,60.4981979 C45.4165821,60.4981979 44.5179244,60.1808677 43.9472549,59.5461979 C43.3765854,58.911528 43.0912549,57.9435377 43.0912549,56.6421979 L43.0912549,49.1061979 L45.1072549,49.1061979 L45.1072549,56.2901979 C45.1072549,57.1648689 45.224587,57.7755295 45.4592549,58.1221979 C45.6939227,58.4688663 46.0832522,58.6421979 46.6272549,58.6421979 C47.1499242,58.6421979 47.5232538,58.4581997 47.7472549,58.0901979 C47.971256,57.722196 48.0832549,57.122202 48.0832549,56.2901979 L48.0832549,49.1061979 Z M58.5152549,50.9621979 L55.8592549,50.9621979 L55.8592549,60.3061979 L53.8432549,60.3061979 L53.8432549,50.9621979 L51.1872549,50.9621979 L51.1872549,49.1061979 L58.5152549,49.1061979 L58.5152549,50.9621979 Z" id="OUT" stroke="#252E3B" stroke-width="0.2" fill="#252E3B"></path>
        </g>
    </g>
</svg>